<?xml version="1.0" encoding="UTF-8"?>
<svg id="_图层_2" data-name="图层 2" xmlns="http://www.w3.org/2000/svg" viewBox="0 0 300 42.08">
  <defs>
    <style>
      .cls-1 {
        fill: #ffa200;
      }

      .cls-1, .cls-2 {
        stroke-width: 0px;
      }

      .cls-2 {
        fill: #fff;
      }
    </style>
  </defs>
  <g id="A-LOGO">
    <g>
      <path class="cls-1" d="M278.96,0c-11.62,0-21.04,9.42-21.04,21.04s9.42,21.04,21.04,21.04,21.04-9.42,21.04-21.04S290.58,0,278.96,0ZM276.76,35.58c-9.22,0-16.69-7.47-16.69-16.69s7.47-16.69,16.69-16.69,16.69,7.47,16.69,16.69-7.47,16.69-16.69,16.69Z"/>
      <circle class="cls-1" cx="122.34" cy="30.23" r="5.52"/>
    </g>
    <g>
      <path class="cls-2" d="M97.86,41.11c.53,0,1.02-.28,1.28-.74l18.77-32.18c.92-1.58,2.58-2.52,4.43-2.52s3.5.94,4.43,2.52l18.77,32.18c.27.46.75.74,1.28.74h3.2c.61,0,.99-.66.68-1.19l-19.88-34.09c-1.77-3.04-4.94-4.85-8.48-4.85s-6.71,1.81-8.48,4.85l-19.88,34.09c-.31.53.07,1.19.68,1.19h3.2Z"/>
      <path class="cls-2" d="M99.96.97c-.53,0-1.02.28-1.28.74l-18.77,32.18c-.92,1.58-2.58,2.52-4.43,2.52s-3.5-.94-4.43-2.52L52.29,1.71c-.27-.46-.75-.74-1.28-.74h-3.2c-.61,0-.99.66-.68,1.19l19.88,34.09c1.77,3.04,4.94,4.85,8.48,4.85s6.71-1.81,8.48-4.85L103.85,2.16c.31-.53-.07-1.19-.68-1.19h-3.2Z"/>
      <path class="cls-2" d="M4,41.11c.53,0,1.02-.28,1.28-.74L24.05,8.19c.92-1.58,2.58-2.52,4.43-2.52s3.5.94,4.43,2.52l18.77,32.18c.27.46.75.74,1.28.74h3.2c.61,0,.99-.66.68-1.19L36.95,5.83c-1.77-3.04-4.94-4.85-8.48-4.85s-6.71,1.81-8.48,4.85L.11,39.92c-.31.53.07,1.19.68,1.19h3.2Z"/>
      <path class="cls-2" d="M35.45,27.89h-13.95c-.53,0-1.01.28-1.28.73l-1.62,2.77c-.31.53.07,1.19.68,1.19h18.39c.61,0,.99-.66.68-1.19l-1.62-2.77c-.27-.45-.75-.73-1.28-.73Z"/>
      <path class="cls-2" d="M192.03.97h-39.87c-.53,0-1.01.28-1.28.73l-1.62,2.77c-.31.53.07,1.19.68,1.19h44.3c.61,0,.99-.66.68-1.19l-1.62-2.77c-.27-.45-.75-.73-1.28-.73Z"/>
      <path class="cls-2" d="M169.75,5.07h4.69v34.85c0,.66-.53,1.19-1.19,1.19h-2.32c-.66,0-1.19-.53-1.19-1.19V5.07h0Z"/>
      <path class="cls-2" d="M248.71.97h-40.21c-.42,0-.81.22-1.02.59l-1.71,2.91c-.31.53.07,1.19.68,1.19h44.3c.61,0,.99-.66.68-1.19l-1.71-2.91c-.21-.36-.6-.59-1.02-.59Z"/>
      <path class="cls-2" d="M226.26,5.07h4.69v34.85c0,.66-.53,1.19-1.19,1.19h-2.32c-.66,0-1.19-.53-1.19-1.19V5.07h0Z"/>
    </g>
  </g>
</svg>