<?xml version="1.0" encoding="UTF-8"?>
<svg id="_图层_2" data-name="图层 2" xmlns="http://www.w3.org/2000/svg" viewBox="0 0 300 53.49">
  <defs>
    <style>
      .cls-1 {
        fill: #fff;
      }

      .cls-1, .cls-2 {
        fill-rule: evenodd;
        stroke-width: 0px;
      }

      .cls-2 {
        fill: #f5a623;
      }
    </style>
  </defs>
  <g id="AVATTO">
    <path id="AVATTO-2" data-name="AVATTO" class="cls-1" d="M275.2,52.19c-13.7,0-24.8-11.31-24.8-25.26s11.11-25.26,24.8-25.26,24.8,11.31,24.8,25.26-11.1,25.26-24.8,25.26ZM268.63,6.32c-8.76,0-15.87,7.23-15.87,16.16s7.1,16.16,15.87,16.16,15.87-7.23,15.87-16.16-7.1-16.16-15.87-16.16ZM233.07,53.49h-7.29V6.5h-17.32V0h41.94v6.5h-17.32v46.99ZM184.74,53.49h-7.29V6.5h-17.33V0h41.95v6.5h-17.33v46.99ZM152.83,53.49l-23.16-40.68-23.16,40.68h-7.29L126.02,6.41l3.65-6.41,3.65,6.41,26.81,47.08h-7.29ZM70.39,53.49L49.61,0h7.29l17.51,45.04L91.91,0h7.3l-20.79,53.49h-8.02ZM42.31,53.49l-6.06-15.6H13.36l-6.06,15.6H0L20.79,0h8.02l20.79,53.49h-7.3ZM24.8,8.45l-8.92,22.94h17.84l-8.92-22.94ZM129.67,25.44c4.93,0,8.94,4.07,8.94,9.1s-4,9.1-8.94,9.1-8.94-4.07-8.94-9.1,4-9.1,8.94-9.1Z"/>
    <path id="AVATTO-3" data-name="AVATTO" class="cls-2" d="M275.2,52.19c-13.7,0-24.8-11.31-24.8-25.26s11.11-25.26,24.8-25.26,24.8,11.31,24.8,25.26-11.1,25.26-24.8,25.26ZM268.63,6.32c-8.76,0-15.87,7.23-15.87,16.16s7.1,16.16,15.87,16.16,15.87-7.23,15.87-16.16-7.1-16.16-15.87-16.16ZM129.67,25.44c4.93,0,8.94,4.07,8.94,9.1s-4,9.1-8.94,9.1-8.94-4.07-8.94-9.1,4-9.1,8.94-9.1Z"/>
  </g>
</svg>