<?xml version="1.0" encoding="UTF-8"?>
<svg id="_图层_2" data-name="图层 2" xmlns="http://www.w3.org/2000/svg" viewBox="0 0 500 89.15">
  <defs>
    <style>
      .cls-1 {
        fill: #1a1a1a;
      }

      .cls-1, .cls-2 {
        fill-rule: evenodd;
        stroke-width: 0px;
      }

      .cls-2 {
        fill: #f5a623;
      }
    </style>
  </defs>
  <g id="AVATTO">
    <path id="AVATTO-2" data-name="AVATTO" class="cls-1" d="M388.45,89.15h-12.16V10.84h-28.87V0h69.91v10.84h-28.87v78.31ZM307.9,89.15h-12.16V10.84h-28.88V0h69.91v10.84h-28.88v78.31ZM254.71,89.15l-38.6-67.79-38.6,67.79h-12.16L210.03,10.68l6.08-10.68,6.08,10.68,44.68,78.47h-12.16ZM117.32,89.15L82.68,0h12.16l29.18,75.07L153.19,0h12.16l-34.65,89.15h-13.37ZM70.52,89.15l-10.11-26H22.26l-10.11,26H0L34.65,0h13.37l34.65,89.15h-12.16ZM41.34,14.08l-14.87,38.24h29.73l-14.86-38.24Z"/>
    <path id="AVATTO-3" data-name="AVATTO" class="cls-2" d="M458.66,86.98c-22.83,0-41.34-18.85-41.34-42.1S435.83,2.79,458.66,2.79s41.34,18.85,41.34,42.1-18.51,42.1-41.34,42.1ZM447.72,10.53c-14.6,0-26.44,12.06-26.44,26.93s11.84,26.93,26.44,26.93,26.44-12.06,26.44-26.93-11.84-26.93-26.44-26.93ZM216.11,42.41c8.22,0,14.89,6.79,14.89,15.17s-6.67,15.17-14.89,15.17-14.9-6.79-14.9-15.17,6.67-15.17,14.9-15.17Z"/>
  </g>
</svg>