<?xml version="1.0" encoding="UTF-8"?>
<svg id="_图层_2" data-name="图层 2" xmlns="http://www.w3.org/2000/svg" viewBox="0 0 500 123.34">
  <defs>
    <style>
      .cls-1 {
        fill: #919191;
      }

      .cls-1, .cls-2, .cls-3 {
        stroke-width: 0px;
      }

      .cls-2 {
        fill: #040000;
      }

      .cls-3 {
        fill: #ffa200;
      }
    </style>
  </defs>
  <g>
    <path class="cls-1" d="M12.08,100.86h12.58v2.36h-9.68v7.5h7.86v2.36h-7.86v10.03h-2.91v-22.26Z"/>
    <path class="cls-1" d="M42.1,123.34c-6.26,0-11.18-4.69-11.18-11.37s4.92-11.37,11.18-11.37,11.18,4.69,11.18,11.37-4.89,11.37-11.18,11.37ZM42.1,120.82c4.69,0,8.21-3.42,8.21-8.85s-3.51-8.85-8.21-8.85-8.21,3.39-8.21,8.85,3.51,8.85,8.21,8.85Z"/>
    <path class="cls-1" d="M70.96,100.57c4.82,0,8.65,2.43,10.32,6.74h-3.48c-1.21-2.68-3.58-4.18-6.83-4.18-4.66,0-8.14,3.39-8.14,8.85s3.48,8.81,8.14,8.81c3.26,0,5.62-1.5,6.83-4.15h3.48c-1.66,4.28-5.49,6.67-10.32,6.67-6.23,0-11.11-4.66-11.11-11.34s4.89-11.4,11.11-11.4Z"/>
    <path class="cls-1" d="M89.35,100.86h2.91v14.08c0,4.09,2.2,5.84,5.49,5.84s5.46-1.76,5.46-5.84v-14.08h2.91v14.05c0,5.78-3.8,8.43-8.4,8.43s-8.37-2.65-8.37-8.43v-14.05Z"/>
    <path class="cls-1" d="M121.86,123.34c-4.47,0-7.63-2.49-7.7-6.16h3.1c.19,1.85,1.5,3.71,4.6,3.71,2.81,0,4.47-1.6,4.47-3.71,0-6-12.04-2.17-12.04-10.44,0-3.67,2.97-6.16,7.38-6.16s7.03,2.33,7.38,5.72h-3.19c-.19-1.5-1.6-3.19-4.31-3.23-2.4-.06-4.28,1.18-4.28,3.58,0,5.75,12.01,2.17,12.01,10.41,0,3.16-2.59,6.29-7.41,6.29Z"/>
    <path class="cls-1" d="M172.18,123.34c-6.26,0-11.18-4.69-11.18-11.37s4.92-11.37,11.18-11.37,11.18,4.69,11.18,11.37-4.89,11.37-11.18,11.37ZM172.18,120.82c4.69,0,8.21-3.42,8.21-8.85s-3.51-8.85-8.21-8.85-8.21,3.39-8.21,8.85,3.51,8.85,8.21,8.85Z"/>
    <path class="cls-1" d="M208.51,100.82v22.29h-2.91l-11.69-17.72v17.72h-2.91v-22.29h2.91l11.69,17.69v-17.69h2.91Z"/>
    <path class="cls-1" d="M249.06,123.34c-4.47,0-7.63-2.49-7.7-6.16h3.1c.19,1.85,1.5,3.71,4.6,3.71,2.81,0,4.47-1.6,4.47-3.71,0-6-12.04-2.17-12.04-10.44,0-3.67,2.97-6.16,7.38-6.16s7.03,2.33,7.38,5.72h-3.19c-.19-1.5-1.6-3.19-4.31-3.23-2.4-.06-4.28,1.18-4.28,3.58,0,5.75,12.01,2.17,12.01,10.41,0,3.16-2.59,6.29-7.41,6.29Z"/>
    <path class="cls-1" d="M264.58,101.02h3.13l8.18,18.27,8.18-18.27h3.1v22.1h-2.91v-16.48l-7.35,16.48h-2.04l-7.38-16.51v16.51h-2.91v-22.1Z"/>
    <path class="cls-1" d="M309.06,118.17h-9.71l-1.79,4.95h-3.07l8.05-22.13h3.35l8.02,22.13h-3.07l-1.79-4.95ZM304.2,104.56l-4.02,11.24h8.05l-4.02-11.24Z"/>
    <path class="cls-1" d="M328.44,100.86c5.24,0,7.73,2.91,7.73,6.55,0,2.84-1.56,5.56-5.3,6.39l5.59,9.33h-3.48l-5.3-9.1h-3.51v9.1h-2.91v-22.26h7.19ZM328.44,103.25h-4.28v8.43h4.28c3.29,0,4.73-1.79,4.73-4.28s-1.41-4.15-4.73-4.15Z"/>
    <path class="cls-1" d="M343.12,100.86h15.07v2.36h-6.07v19.9h-2.91v-19.9h-6.1v-2.36Z"/>
    <path class="cls-1" d="M404.56,113.02h-11.34v10.09h-2.91v-22.26h2.91v9.77h11.34v-9.77h2.91v22.26h-2.91v-10.09Z"/>
    <path class="cls-1" d="M426.3,123.34c-6.26,0-11.18-4.69-11.18-11.37s4.92-11.37,11.18-11.37,11.18,4.69,11.18,11.37-4.89,11.37-11.18,11.37ZM426.3,120.82c4.69,0,8.21-3.42,8.21-8.85s-3.51-8.85-8.21-8.85-8.21,3.39-8.21,8.85,3.51,8.85,8.21,8.85Z"/>
    <path class="cls-1" d="M445.13,101.02h3.13l8.18,18.27,8.18-18.27h3.1v22.1h-2.91v-16.48l-7.35,16.48h-2.04l-7.38-16.51v16.51h-2.91v-22.1Z"/>
    <path class="cls-1" d="M488.43,103.22h-9.07v7.44h8.11v2.4h-8.11v7.67h9.07v2.4h-11.98v-22.29h11.98v2.4Z"/>
  </g>
  <g id="A-LOGO">
    <g>
      <path class="cls-3" d="M464.93,0c-19.37,0-35.07,15.7-35.07,35.07s15.7,35.07,35.07,35.07,35.07-15.7,35.07-35.07S484.3,0,464.93,0ZM461.26,59.31c-15.37,0-27.82-12.46-27.82-27.82s12.46-27.82,27.82-27.82,27.82,12.46,27.82,27.82-12.46,27.82-27.82,27.82Z"/>
      <circle class="cls-3" cx="203.9" cy="50.38" r="9.2"/>
    </g>
    <g>
      <path class="cls-2" d="M163.09,68.51c.88,0,1.69-.47,2.14-1.23l31.28-53.63c1.54-2.63,4.29-4.21,7.38-4.21s5.84,1.57,7.38,4.21l31.28,53.63c.44.76,1.26,1.23,2.14,1.23h5.34c1.02,0,1.65-1.1,1.14-1.98l-33.14-56.82c-2.95-5.06-8.24-8.09-14.13-8.09s-11.18,3.02-14.13,8.09l-33.14,56.82c-.51.88.12,1.98,1.14,1.98h5.34Z"/>
      <path class="cls-2" d="M166.61,1.62c-.88,0-1.69.47-2.14,1.23l-31.28,53.63c-1.54,2.63-4.29,4.21-7.38,4.21s-5.84-1.57-7.38-4.21L87.15,2.85c-.44-.76-1.26-1.23-2.14-1.23h-5.34c-1.02,0-1.65,1.1-1.14,1.98l33.14,56.82c2.95,5.06,8.24,8.09,14.13,8.09s11.18-3.02,14.13-8.09L173.09,3.61c.51-.88-.12-1.98-1.14-1.98h-5.34Z"/>
      <path class="cls-2" d="M6.66,68.51c.88,0,1.69-.47,2.14-1.23L40.08,13.65c1.54-2.63,4.29-4.21,7.38-4.21s5.84,1.57,7.38,4.21l31.28,53.63c.44.76,1.26,1.23,2.14,1.23h5.34c1.02,0,1.65-1.1,1.14-1.98L61.59,9.71c-2.95-5.06-8.24-8.09-14.13-8.09s-11.18,3.02-14.13,8.09L.18,66.53c-.51.88.12,1.98,1.14,1.98h5.34Z"/>
      <path class="cls-2" d="M59.09,46.49h-23.26c-.88,0-1.69.47-2.14,1.22l-2.7,4.61c-.51.88.12,1.99,1.14,1.99h30.65c1.02,0,1.65-1.11,1.14-1.99l-2.7-4.61c-.44-.76-1.26-1.22-2.14-1.22Z"/>
      <path class="cls-2" d="M320.05,1.62h-66.44c-.88,0-1.69.47-2.14,1.22l-2.7,4.61c-.51.88.12,1.99,1.14,1.99h73.84c1.02,0,1.65-1.11,1.14-1.99l-2.7-4.61c-.44-.76-1.26-1.22-2.14-1.22Z"/>
      <path class="cls-2" d="M282.91,8.44h7.82v58.09c0,1.09-.89,1.98-1.98,1.98h-3.86c-1.09,0-1.98-.89-1.98-1.98V8.44h0Z"/>
      <path class="cls-2" d="M414.52,1.62h-67.01c-.7,0-1.35.37-1.71.98l-2.84,4.86c-.51.88.12,1.99,1.14,1.99h73.84c1.02,0,1.65-1.11,1.14-1.99l-2.84-4.86c-.36-.61-1.01-.98-1.71-.98Z"/>
      <path class="cls-2" d="M377.1,8.44h7.82v58.09c0,1.09-.89,1.98-1.98,1.98h-3.86c-1.09,0-1.98-.89-1.98-1.98V8.44h0Z"/>
    </g>
  </g>
</svg>