<?xml version="1.0" encoding="UTF-8"?>
<svg id="_图层_2" data-name="图层 2" xmlns="http://www.w3.org/2000/svg" viewBox="0 0 40 40">
  <defs>
    <style>
      .cls-1 {
        fill: #5ac8fa;
      }

      .cls-1, .cls-2 {
        stroke-width: 0px;
      }

      .cls-2 {
        fill: #fff;
      }
    </style>
  </defs>
  <g id="Hardware_information" data-name="Hardware information">
    <rect class="cls-1" width="40" height="40" rx="10" ry="10"/>
    <path class="cls-2" d="M22.93,14.88h-5.85c-1.25,0-2.09.84-2.09,2.09v6.06c0,1.04.84,1.88,2.09,1.88h6.06c1.04,0,1.88-.84,1.88-2.09v-5.85c0-1.25-.84-2.09-2.09-2.09h0ZM22.51,17.39v5.22h-5.01v-5.22h5.01Z"/>
    <path class="cls-2" d="M32.75,21.15c.63,0,1.25-.63,1.25-1.25s-.63-1.25-1.25-1.25h-3.34v-2.09h3.34c.63,0,1.25-.63,1.25-1.25s-.63-1.25-1.25-1.25h-3.34v-.21c0-1.88-1.46-3.55-3.55-3.55h-.21v-3.13c0-.63-.53-1.25-1.15-1.25s-1.15.42-1.15,1.25v3.34h-2.09v-3.34c0-.63-.63-1.25-1.25-1.25s-1.25.42-1.25,1.25v3.34h-2.09v-3.34c0-.63-.63-1.25-1.25-1.25s-1.25.63-1.25,1.25v3.34h-.21c-1.88,0-3.55,1.46-3.55,3.55v.21h-3.13c-.63,0-1.25.63-1.25,1.25s.63,1.25,1.25,1.25h3.34v1.91h-3.34c-.78,0-1.25.66-1.25,1.29s.63,1.19,1.25,1.19h3.34v2.09h-3.34c-.63,0-1.25.63-1.25,1.25s.63,1.25,1.25,1.25h3.34v.21c0,1.88,1.46,3.55,3.55,3.55h.21v3.34c0,.63.63,1.25,1.25,1.25s1.25-.63,1.25-1.25v-3.34h2.09v3.34c0,.63.63,1.25,1.25,1.25s1.25-.63,1.25-1.25v-3.34h2.09v3.34c0,.63.63,1.25,1.25,1.25s1.25-.63,1.25-1.25v-3.34h.21c1.88,0,3.21-1.46,3.21-3.55v-.42h3.26c.63,0,1.25-.63,1.25-1.25s-.63-1.25-1.25-1.25h-3.26v-1.88h3.26ZM27.1,13.84v12.12c0,.63-.42,1.04-1.04,1.04h-12.12c-.63,0-1.04-.42-1.04-1.04v-12.12c0-.63.42-1.04,1.04-1.04h12.12c.63,0,1.04.42,1.04,1.04h0Z"/>
  </g>
</svg>