<?xml version="1.0" encoding="UTF-8"?>
<svg id="_图层_2" data-name="图层 2" xmlns="http://www.w3.org/2000/svg" viewBox="0 0 40 40">
  <defs>
    <style>
      .cls-1 {
        opacity: .3;
      }

      .cls-1, .cls-2 {
        fill: #f5a623;
        stroke-width: 0px;
      }
    </style>
  </defs>
  <g id="Brand_Information" data-name="Brand Information">
    <rect class="cls-1" width="40" height="40" rx="10" ry="10"/>
    <path class="cls-2" d="M34.03,15.93l-4.37-7.42c-.17-.29-.46-.49-.79-.53h-.14s-17.46,0-17.46,0c-.38,0-.74.21-.94.54l-4.37,7.42c-.25.42-.2.95.12,1.31l12.37,14.1.03.04c.2.21.43.37.69.48.8.34,1.72.15,2.32-.48l.04-.04,12.37-14.1c.32-.36.37-.9.12-1.31ZM20,29.76l-11.75-13.39,3.63-6.17h16.23l3.63,6.17-11.75,13.39ZM15.53,16.07l.46-.77c.31-.53.14-1.21-.38-1.53-.52-.32-1.19-.14-1.5.38h0s-.87,1.48-.87,1.48c-.25.42-.2.96.13,1.32l2.91,3.26c.26.31.66.45,1.05.37.39-.08.7-.37.82-.76.12-.39.02-.81-.26-1.1l-2.37-2.65Z"/>
  </g>
</svg>