<?xml version="1.0" encoding="UTF-8"?>
<svg id="_图层_2" data-name="图层 2" xmlns="http://www.w3.org/2000/svg" viewBox="0 0 34.92 33">
  <g id="_图层_1-2" data-name="图层 1">
    <path id="_左导航02-设置" data-name="左导航02-设置" d="M34.56,13.09c-.2-1.08-.86-1.78-1.68-1.78-.01,0-.02,0-.03,0h-.15c-2.36,0-4.27-1.92-4.27-4.27,0-.76.37-1.62.37-1.63.42-.95.1-2.12-.76-2.71l-.05-.04L23.66.26l-.05-.02c-.28-.12-.59-.18-.92-.18-.67,0-1.33.27-1.76.72-.48.49-2.12,1.89-3.38,1.89s-2.92-1.43-3.4-1.93c-.44-.46-1.1-.73-1.78-.73-.32,0-.62.06-.9.18l-.06.02-4.48,2.46-.05.04c-.86.59-1.18,1.76-.76,2.71,0,0,.37.86.37,1.63,0,2.36-1.92,4.27-4.27,4.27h-.15s-.02,0-.03,0c-.81,0-1.47.7-1.68,1.78-.01.08-.36,1.95-.36,3.42s.35,3.34.36,3.42c.2,1.08.86,1.78,1.68,1.78.01,0,.02,0,.03,0h.15c2.36,0,4.27,1.92,4.27,4.27,0,.77-.37,1.62-.37,1.63-.42.95-.1,2.12.75,2.71l.05.04,4.25,2.38.05.02c.28.12.59.19.92.19.68,0,1.34-.28,1.78-.75.6-.66,2.24-2.01,3.45-2.01,1.31,0,2.99,1.52,3.47,2.05.43.48,1.1.76,1.79.76h0c.32,0,.62-.06.9-.18l.06-.02,4.4-2.43.05-.04c.85-.59,1.18-1.76.76-2.71,0,0-.37-.87-.37-1.63,0-2.36,1.92-4.27,4.27-4.27h.15s.02,0,.03,0c.82,0,1.48-.7,1.68-1.77,0-.02.37-1.92.37-3.42s-.35-3.34-.36-3.42h0ZM12.17,30.48l-3.72-2.08c.16-.42.5-1.4.5-2.42,0-3.53-2.71-6.44-6.21-6.71-.09-.5-.29-1.77-.29-2.76s.2-2.26.29-2.76c3.49-.27,6.21-3.18,6.21-6.71,0-1.01-.33-1.99-.5-2.41l3.96-2.17h0c.14.15.71.71,1.5,1.27,1.29.92,2.51,1.38,3.64,1.38s2.33-.46,3.61-1.36c.78-.55,1.35-1.11,1.49-1.25,0,0,0,0,0,0l3.81,2.12c-.16.42-.5,1.4-.5,2.42,0,3.53,2.71,6.44,6.21,6.71.09.5.29,1.78.29,2.76s-.2,2.26-.29,2.76c-3.49.27-6.21,3.18-6.21,6.71,0,1.01.33,1.99.5,2.41l-3.86,2.13c-.17-.18-.73-.75-1.51-1.33-1.31-.97-2.57-1.47-3.73-1.47s-2.4.48-3.7,1.44c-.77.56-1.33,1.13-1.5,1.31h0ZM23.57,16.49c0-3.41-2.77-6.18-6.18-6.18s-6.18,2.77-6.18,6.18,2.77,6.18,6.18,6.18,6.18-2.77,6.18-6.18h0ZM17.39,12.76c2.06,0,3.73,1.67,3.73,3.73s-1.67,3.73-3.73,3.73-3.73-1.67-3.73-3.73,1.67-3.73,3.73-3.73h0Z"/>
  </g>
</svg>