<?xml version="1.0" encoding="UTF-8"?>
<svg id="_图层_2" data-name="图层 2" xmlns="http://www.w3.org/2000/svg" viewBox="0 0 34 34">
  <g id="_图层_1-2" data-name="图层 1">
    <path id="_左导航01-状态" data-name="左导航01-状态" d="M34,4.86c0-2.68-2.17-4.86-4.86-4.86H4.86C2.17,0,0,2.17,0,4.86v24.28c0,2.68,2.17,4.86,4.86,4.86h24.28c2.68,0,4.86-2.17,4.86-4.86V4.86ZM3.14,3.14c.46-.46,1.08-.71,1.72-.71h24.28c.64,0,1.26.26,1.72.71.46.46.71,1.07.71,1.72v10.93s0,0,0,0h-1.92l-2.08-2.08c-.3-.3-.73-.42-1.14-.32-.41.1-.74.4-.87.8l-1.5,4.51-3.55-7.1c-.21-.43-.66-.69-1.14-.67-.48.02-.9.32-1.08.76l-3.54,8.85-3.88-13.59c-.14-.48-.56-.83-1.05-.87-.5-.05-.97.22-1.2.67l-4.53,9.04h-1.68s0-10.93,0-10.93c0-.65.26-1.27.71-1.72h0ZM30.86,30.86c-.45.46-1.07.71-1.72.71H4.86c-.65,0-1.26-.25-1.72-.71-.46-.46-.71-1.07-.71-1.72v-10.93h2.43c.46,0,.88-.27,1.08-.68l3.46-6.92,4,14c.14.5.59.85,1.1.88.02,0,.04,0,.06,0,.5,0,.94-.3,1.13-.76l3.85-9.64,3.65,7.3c.22.44.68.7,1.17.67.49-.03.91-.36,1.06-.83l1.81-5.43,1.05,1.04c.23.23.54.36.86.35h2.42s0,0,0,0v10.93c0,.64-.25,1.26-.71,1.72h0Z"/>
  </g>
</svg>