<?xml version="1.0" encoding="UTF-8"?>
<svg id="_图层_2" data-name="图层 2" xmlns="http://www.w3.org/2000/svg" viewBox="0 0 40 40">
  <defs>
    <style>
      .cls-1 {
        opacity: .3;
      }

      .cls-1, .cls-2 {
        fill: #f5a623;
        stroke-width: 0px;
      }
    </style>
  </defs>
  <g id="Configuration_file_list" data-name="Configuration file list">
    <rect class="cls-1" width="40" height="40" rx="10" ry="10"/>
    <path class="cls-2" d="M29.85,15.12l-7.23-7.12c-.3-.29-.69-.45-1.1-.45s-.81.16-1.1.45c-.29.29-.46.67-.46,1.09v5.12c0,1.82,1.5,3.3,3.35,3.3h5.49s0,10.38,0,10.38c0,1.42-1.17,2.57-2.61,2.57h-12.38c-1.44,0-2.61-1.15-2.61-2.57v-15.47c0-1.42,1.17-2.57,2.61-2.57h2.55c.56,0,1.02-.45,1.02-1s-.45-1-1.02-1h-2.55c-2.56,0-4.64,2.05-4.64,4.57v15.47c0,2.52,2.08,4.57,4.64,4.57h12.38c2.56,0,4.64-2.05,4.64-4.57v-10.43c0-.88-.35-1.71-.98-2.34ZM23.31,15.5c-.72,0-1.31-.58-1.32-1.3v-3.99l5.36,5.28h-4.04ZM24.14,25.54h-8.28c-.56,0-1.02.45-1.02,1s.46,1,1.02,1h8.28c.56,0,1.02-.45,1.02-1s-.45-1-1.02-1ZM24.14,20.52h-8.28c-.56,0-1.02.45-1.02,1s.46,1,1.02,1h8.28c.56,0,1.02-.45,1.02-1s-.45-1-1.02-1Z"/>
  </g>
</svg>