<?xml version="1.0" encoding="UTF-8"?>
<svg id="_图层_2" data-name="图层 2" xmlns="http://www.w3.org/2000/svg" viewBox="0 0 34 24.66">
  <defs>
    <style>
      .cls-1 {
        fill: #5ac8fa;
        stroke-width: 0px;
      }
    </style>
  </defs>
  <g id="wifi_Information" data-name="wifi Information">
    <path class="cls-1" d="M32.94,8.7c-.27,0-.54-.1-.75-.31C23.82,0,10.18.01,1.8,8.39c-.41.41-1.08.41-1.49,0s-.41-1.08,0-1.49C9.51-2.3,24.48-2.3,33.69,6.9c.41.41.41,1.08,0,1.49-.21.21-.47.31-.75.31Z"/>
    <path class="cls-1" d="M26.11,15.54c-.27,0-.54-.1-.75-.31-4.61-4.61-12.12-4.61-16.73,0-.41.41-1.08.41-1.49,0s-.41-1.08,0-1.49c5.43-5.43,14.27-5.43,19.71,0,.41.41.41,1.08,0,1.49-.21.21-.47.31-.75.31Z"/>
    <circle class="cls-1" cx="17" cy="21.85" r="2.81"/>
  </g>
</svg>