<?xml version="1.0" encoding="UTF-8"?>
<svg id="_图层_2" data-name="图层 2" xmlns="http://www.w3.org/2000/svg" viewBox="0 0 34 34">
  <defs>
    <style>
      .cls-1 {
        fill: #5ac8fa;
        stroke-width: 0px;
      }
    </style>
  </defs>
  <g id="WireGuard_VPN" data-name="WireGuard VPN">
    <path class="cls-1" d="M30.69,25.41H3.19c-1.84,0-3.19-1.35-3.19-3.19V3.19C0,1.35,1.35,0,3.19,0h27.49c1.84,0,3.19,1.35,3.19,3.19v19.03c0,1.84-1.35,3.19-3.19,3.19h0ZM3.19,2.09c-.61,0-1.1.37-1.1,1.1v19.03c0,.61.37,1.1,1.1,1.1h27.49c.61,0,1.1-.37,1.1-1.1V3.19c0-.61-.37-1.1-1.1-1.1H3.19Z"/>
    <path class="cls-1" d="M4.17,8.47h2.45l1.1,4.66c.37,1.1.37,2.09.74,3.31.37-1.1.37-2.09.74-3.31l1.1-4.66h2.33l-2.82,10.19h-2.7l-2.95-10.19ZM13.5,8.47h3.44c2.09,0,3.81.74,3.81,3.31s-1.72,3.44-3.68,3.44h-1.1v3.44h-2.21v-10.19h-.25ZM16.82,13.38c1.1,0,1.6-.49,1.6-1.6s-.61-1.35-1.72-1.35h-.86v2.95h.98ZM22.22,8.47h2.33l2.33,4.91.98,2.21h.12c-.12-1.1-.37-2.58-.37-3.68v-3.44h2.09v10.19h-2.33l-2.33-4.91-.86-2.21h-.12c.12,1.1.37,2.58.37,3.68v3.44h-2.09v-10.19h-.12ZM32.9,29.7h-13.01c-.37-.86-1.1-1.6-1.96-1.96v-3.56h-2.09v3.56c-.86.37-1.6,1.1-1.96,1.96H1.1c-.61,0-1.1.37-1.1,1.1,0,.61.37,1.1,1.1,1.1h12.89c.37,1.23,1.6,2.09,2.95,2.09s2.58-.86,2.95-2.09h13.01c.61,0,1.1-.37,1.1-1.1-.12-.74-.61-1.1-1.1-1.1h0ZM15.83,30.69c0-.61.37-1.1,1.1-1.1.61,0,1.1.37,1.1,1.1,0,.61-.37,1.1-1.1,1.1-.61,0-1.1-.49-1.1-1.1h0Z"/>
  </g>
</svg>