<?xml version="1.0" encoding="UTF-8"?>
<svg id="_图层_2" data-name="图层 2" xmlns="http://www.w3.org/2000/svg" viewBox="0 0 32.74 34">
  <g id="_图层_1-2" data-name="图层 1">
    <g id="_左导航06-安全" data-name="左导航06-安全">
      <g>
        <path d="M15.76,34c-1.38,0-2.73-.41-3.88-1.17l-4.88-3.2C2.61,26.74-.02,21.83,0,16.58v-6.96c0-1.53,1.06-2.86,2.55-3.2,4.06-1.08,7.84-3,11.1-5.64,1.23-1.03,3.02-1.03,4.24,0,3.26,2.64,7.04,4.56,11.1,5.64,1.51.34,2.57,1.68,2.57,3.22v2.69c0,.45-.24.88-.64,1.1-.39.23-.88.23-1.27,0-.39-.23-.64-.65-.64-1.1v-2.72c0-.33-.2-.62-.51-.72-4.48-1.14-8.66-3.22-12.26-6.11-.27-.21-.64-.21-.91,0-3.61,2.89-7.8,4.97-12.28,6.11-.33.09-.56.4-.55.74v6.94c0,4.39,2.2,8.49,5.88,10.9l4.88,3.2c1.5.99,3.44.99,4.94,0,.58-.34,1.33-.17,1.7.4.37.56.24,1.32-.3,1.72-1.13.76-2.46,1.17-3.82,1.19h0Z"/>
        <path d="M24.76,16.58c.09-.02.19-.02.28,0l4.88,2.82c.17.1.27.27.28.47v5.64c0,.19-.11.37-.28.47l-4.88,2.82c-.17.1-.38.1-.55,0l-4.88-2.82c-.16-.1-.26-.28-.25-.47v-5.56c0-.19.11-.37.28-.47l4.88-2.82c.09-.05.15-.07.25-.08M24.82,14.04c-.54,0-1.12.23-1.59.51l-4.88,2.72c-.96.55-1.55,1.57-1.55,2.67v5.58c0,1.1.59,2.12,1.55,2.67l4.88,2.82c.96.55,2.14.55,3.1,0l4.88-2.82c.95-.56,1.53-1.57,1.53-2.67v-5.56c0-1.1-.59-2.12-1.55-2.67l-4.82-2.82c-.47-.28-1-.42-1.55-.42h0Z"/>
        <path d="M24.97,21.78c.54,0,.98.44.98.98s-.44.98-.98.98-.98-.44-.98-.98c0-.26.1-.51.29-.69.18-.18.43-.29.69-.29M24.97,19.15c-1.94,0-3.52,1.66-3.52,3.6,0,1.94,1.57,3.52,3.51,3.53,1.94,0,3.52-1.56,3.54-3.5.03-.95-.33-1.88-.99-2.56-.66-.68-1.58-1.07-2.53-1.07h0Z"/>
      </g>
    </g>
  </g>
</svg>