<?xml version="1.0" encoding="UTF-8"?>
<svg id="_图层_2" data-name="图层 2" xmlns="http://www.w3.org/2000/svg" viewBox="0 0 40 40">
  <defs>
    <style>
      .cls-1 {
        opacity: .3;
        stroke-width: 0px;
      }

      .cls-1, .cls-2 {
        fill: #f5a623;
      }

      .cls-2 {
        stroke: #f5a623;
        stroke-linecap: round;
        stroke-linejoin: round;
        stroke-width: .57px;
      }
    </style>
  </defs>
  <g id="Configuration_Generator" data-name="Configuration Generator">
    <rect class="cls-1" width="40" height="40" rx="10" ry="10"/>
    <g>
      <path class="cls-2" d="M20,34c-.15,0-.3-.04-.43-.12l-11.36-6.56c-.28-.15-.45-.44-.45-.75v-13.13c0-.31.17-.6.45-.75l11.36-6.56c.27-.16.61-.16.87,0l11.36,6.56c.27.15.43.44.43.75v13.13c0,.31-.16.6-.43.75l-11.36,6.56c-.13.08-.29.13-.45.12h0ZM9.53,26.05l10.47,6.06,10.49-6.06v-12.09l-10.49-6.05-10.47,6.05v12.1Z"/>
      <line class="cls-2" x1="8.64" y1="13.43" x2="20" y2="19.87"/>
      <path class="cls-2" d="M20,20.75c-.15,0-.3-.04-.43-.13l-11.36-6.42c-.2-.11-.35-.3-.42-.53-.06-.22-.03-.46.08-.67.25-.42.78-.57,1.21-.34l11.34,6.44c.35.19.53.6.43.99-.1.39-.45.66-.85.65h0Z"/>
      <line class="cls-2" x1="31.06" y1="13.58" x2="19.7" y2="20"/>
      <path class="cls-2" d="M19.79,20.87c-.4,0-.75-.27-.85-.65-.1-.39.07-.79.43-.99l11.27-6.42c.2-.11.44-.14.67-.08.22.06.41.21.53.42.23.42.08.95-.34,1.2,0,0-11.58,6.51-11.7,6.53h0Z"/>
      <path class="cls-2" d="M20,33.57c-.23,0-.45-.09-.62-.26s-.26-.39-.26-.62v-13.06c0-.49.4-.89.89-.89s.89.4.89.89v13.06c0,.24-.1.47-.27.63-.17.16-.4.25-.64.24h0Z"/>
    </g>
  </g>
</svg>