<?xml version="1.0" encoding="UTF-8"?>
<svg id="_图层_2" data-name="图层 2" xmlns="http://www.w3.org/2000/svg" viewBox="0 0 40 40">
  <defs>
    <style>
      .cls-1 {
        opacity: .3;
      }

      .cls-1, .cls-2 {
        fill: #f5a623;
        stroke-width: 0px;
      }
    </style>
  </defs>
  <g id="System_operation" data-name="System operation">
    <rect class="cls-1" width="40" height="40" rx="10" ry="10"/>
    <path class="cls-2" d="M21.54,29.73c.64,0,1.16.51,1.16,1.14s-.52,1.14-1.16,1.14h-9.26c-.64,0-1.16-.51-1.16-1.14s.52-1.14,1.16-1.14h9.26ZM26.17,17.74c.28,0,.56.11.74.31.29.3.76.61,1.04.61s.75-.3,1.04-.6c.26-.26.64-.36,1-.27l.16.06,1.51.84c.33.23.48.64.39.99l-.05.15c-.02.06-.04.12-.06.18l-.04.15-.02.16v.03c0,.64.46,1.19,1.11,1.3l.24.02c.39,0,.68.31.76.76l.07.4c.02.18.04.35.05.51v.3c.01.4-.07.98-.12,1.22-.07.39-.31.68-.62.75h-.14s-.05,0-.05,0c-.65,0-1.19.49-1.28,1.12v.22s-.01.03-.01.03c0,.1.03.19.06.28l.06.17c.15.35.07.76-.19,1.03l-.12.11-.04.03-1.53.85c-.39.17-.85.07-1.14-.24-.3-.33-.77-.65-1.07-.65s-.77.33-1.06.64c-.25.27-.64.38-1.01.28l-.12-.04-1.52-.86c-.36-.26-.5-.72-.34-1.13.02-.06.05-.12.07-.18l.04-.15.02-.16v-.03c0-.64-.46-1.19-1.11-1.3h-.19s-.06-.01-.06-.01c-.38,0-.67-.31-.75-.75-.08-.4-.12-.81-.13-1.22,0-.4.07-.9.13-1.22.07-.39.31-.68.62-.74h.19c.65-.01,1.19-.5,1.28-1.13v-.22s.01-.03.01-.03c0-.1-.03-.19-.06-.28l-.06-.17c-.15-.35-.07-.76.2-1.04l.12-.11,1.6-.89c.12-.05.26-.08.39-.08h0ZM26.45,19.85l-.88.48.05.18c.02.07.03.14.04.21v.22c.01,1.04-.75,1.91-1.75,2.08h-.04s-.01.09-.01.09c-.01.09-.02.19-.03.28v.26c-.01.11,0,.23,0,.35l.04.27h.04c.93.16,1.65.91,1.75,1.85v.24c.01.15,0,.3-.04.43l-.05.18.79.47.13-.12.24-.19c.4-.29.8-.45,1.17-.45s.78.16,1.18.46l.14.11.21.19.84-.47-.05-.18c-.02-.07-.03-.14-.04-.21v-.22c-.01-1.04.74-1.91,1.75-2.08h.03s.02-.1.02-.1c.01-.09.02-.18.03-.28v-.25s0-.17,0-.17l-.04-.36-.02-.1h-.03c-.94-.16-1.65-.92-1.75-1.85v-.24c-.01-.15,0-.29.04-.43l.05-.18-.82-.48-.12.12-.24.18c-.4.28-.78.42-1.14.42s-.76-.15-1.15-.43c-.11-.07-.2-.15-.3-.24l-.05-.05ZM31.44,7.99c.31,0,.6.12.82.33.22.21.34.51.34.81v6.29c.02.42-.2.82-.57,1.03-.37.22-.82.22-1.19,0-.37-.22-.58-.61-.57-1.03v-4.58c0-.32-.26-.57-.58-.57H8.79c-.32,0-.58.26-.58.57v13.73c0,.32.26.57.58.57h9.88c.64,0,1.16.51,1.16,1.14s-.52,1.14-1.16,1.14H7.06c-.31,0-.61-.12-.82-.33-.22-.21-.34-.51-.34-.81V9.13c0-.63.52-1.14,1.17-1.14h24.39ZM27.94,21.06c1.42,0,2.57,1.14,2.57,2.54s-1.15,2.54-2.57,2.54-2.57-1.14-2.57-2.54,1.15-2.54,2.57-2.54h0ZM27.94,22.67c-.52,0-.93.41-.93.92s.42.92.93.92.93-.41.93-.92-.42-.92-.93-.92h0Z"/>
  </g>
</svg>