<?xml version="1.0" encoding="UTF-8"?>
<svg id="_图层_2" data-name="图层 2" xmlns="http://www.w3.org/2000/svg" viewBox="0 0 38 29.2">
  <g id="_图层_1-2" data-name="图层 1">
    <path id="_左导航07-MQTT" data-name="左导航07-MQTT" d="M14.69,13.91c0,1.64.63,2.91,2.02,3.54,1.14.63,1.14,1.39,1.14,2.4v.25c-4.17-.25-6.2-5.31-4.05-9.99l-1.14-1.01c-2.28,2.78-2.15,6.7.25,10.37-.76.76-1.52,1.52-2.4,2.15-.76.76-1.52,1.39-2.53,2.28-2.28-2.65-3.54-5.94-3.67-9.48-.13-3.67,1.01-6.83,3.16-9.86l-1.39-1.52c-2.53,3.16-3.79,7.08-3.79,11.13s1.52,7.84,4.05,11l-1.52,1.39C-1.12,20.86-2.39,7.96,5.71,0c.38.25.63.51,1.01.76,1.26,1.14,2.53,2.4,3.79,3.54-2.53,2.66-4.05,5.69-4.05,9.48,0,2.28.63,4.55,1.77,6.45l1.52-1.26c-1.26-2.66-1.64-5.31-.76-8.22.51-1.9,1.64-3.67,3.16-4.93l4.55,4.17c-1.26,1.01-2.15,2.28-2.02,3.92h0ZM32.14,0l-4.68,4.3c4.43,5.69,5.18,11.25,2.28,15.93l-1.39-1.26c2.02-5.69,1.14-10.49-2.53-13.15l-4.55,4.17c.25.25.51.51.76.63,2.02,2.02,1.77,5.44-.63,6.83-1.14.63-1.14,1.39-1.01,2.4v.13c4.3-.63,6.2-5.18,4.05-10.11l1.27-1.01c2.28,3.03,2.15,6.45-.38,10.37l4.68,4.3c1.39-1.14,2.91-4.05,3.41-6.7.89-4.55,0-8.85-2.91-12.52.25-.25.51-.51.76-.63.25-.25.51-.38.89-.63,5.06,7.59,4.81,14.92-.51,22.12l1.64,1.39c6.96-7.71,5.94-20.35-1.14-26.55h0ZM20.76,15.68c1.14-.89,1.14-2.65,0-3.67-1.01-1.01-2.66-1.01-3.67,0-1.14,1.01-1.14,2.66,0,3.67.63.51.76,1.14.89,1.9.25,3.92.63,7.71.89,11.63h.25c.25-3.79.51-7.71.76-11.51.13-.88.13-1.52.89-2.02h0Z"/>
  </g>
</svg>