<?xml version="1.0" encoding="UTF-8"?>
<svg id="_图层_2" data-name="图层 2" xmlns="http://www.w3.org/2000/svg" viewBox="0 0 40 40">
  <defs>
    <style>
      .cls-1 {
        opacity: .3;
      }

      .cls-1, .cls-2 {
        fill: #f5a623;
        stroke-width: 0px;
      }
    </style>
  </defs>
  <g id="MQTT_Settings" data-name="MQTT Settings">
    <rect class="cls-1" width="40" height="40" rx="10" ry="10"/>
    <path id="MQTT" class="cls-2" d="M16.75,19.48c0,1.24.48,2.19,1.52,2.67.86.48.86,1.05.86,1.81v.19c-3.14-.19-4.67-4-3.05-7.52l-.86-.76c-1.71,2.1-1.62,5.05.19,7.81-.57.57-1.14,1.14-1.81,1.62-.57.57-1.14,1.05-1.91,1.71-1.71-2-2.67-4.48-2.76-7.14-.1-2.76.76-5.14,2.38-7.43l-1.05-1.14c-1.9,2.38-2.86,5.33-2.86,8.38s1.14,5.91,3.05,8.29l-1.14,1.05c-4.48-4.29-5.43-14,.67-20,.29.19.48.38.76.57.95.86,1.91,1.81,2.86,2.67-1.91,2-3.05,4.29-3.05,7.14,0,1.71.48,3.43,1.33,4.86l1.14-.95c-.95-2-1.24-4-.57-6.19.38-1.43,1.24-2.76,2.38-3.71l3.43,3.14c-.95.76-1.62,1.71-1.52,2.95h0ZM29.9,9l-3.52,3.24c3.33,4.29,3.91,8.48,1.71,12l-1.05-.95c1.52-4.29.86-7.91-1.9-9.9l-3.43,3.14c.19.19.38.38.57.48,1.52,1.52,1.33,4.1-.48,5.14-.86.48-.86,1.05-.76,1.81v.1c3.24-.48,4.67-3.91,3.05-7.62l.95-.76c1.71,2.29,1.62,4.86-.29,7.81l3.52,3.24c1.05-.86,2.19-3.05,2.57-5.05.67-3.43,0-6.67-2.19-9.43.19-.19.38-.38.57-.48.19-.19.38-.29.67-.48,3.81,5.71,3.62,11.24-.38,16.67l1.24,1.05c5.24-5.81,4.48-15.33-.86-20h0ZM21.32,20.81c.86-.67.86-2,0-2.76-.76-.76-2-.76-2.76,0-.86.76-.86,2,0,2.76.48.38.57.86.67,1.43.19,2.95.48,5.81.67,8.76h.19c.19-2.86.38-5.81.57-8.67.1-.67.1-1.14.67-1.52h0Z"/>
  </g>
</svg>