<?xml version="1.0" encoding="UTF-8"?>
<svg id="_图层_2" data-name="图层 2" xmlns="http://www.w3.org/2000/svg" viewBox="0 0 34 31.18">
  <defs>
    <style>
      .cls-1 {
        fill: #5ac8fa;
        stroke-width: 0px;
      }
    </style>
  </defs>
  <g id="Ethernet_Information" data-name="Ethernet Information">
    <path class="cls-1" d="M29.66,0h-15.96c-.69,0-1.25.56-1.25,1.25s.56,1.25,1.25,1.25h15.96c1.02,0,1.86.83,1.86,1.86v13.86c0,1.02-.83,1.86-1.86,1.86H9.16c-.69,0-1.25.56-1.25,1.25s.56,1.25,1.25,1.25h8.06c-.02.06-.03.13-.03.19v5.93h-5.93c-.69,0-1.25.56-1.25,1.25s.56,1.25,1.25,1.25h14.33c.69,0,1.25-.56,1.25-1.25s-.56-1.25-1.25-1.25h-5.93v-5.93c0-.06-.03-.13-.03-.19h10.02c2.4,0,4.34-1.94,4.34-4.34V4.34c0-2.38-1.94-4.34-4.34-4.34h0Z"/>
    <path class="cls-1" d="M9.84,16.82c.68,0,1.25-.55,1.25-1.25V1.25c0-.69-.56-1.25-1.25-1.25H1.25c-.33,0-.65.13-.88.37-.23.23-.37.55-.37.88v14.33c0,.68.55,1.25,1.25,1.25h3.06v13.08c0,.69.56,1.25,1.25,1.25s1.25-.56,1.25-1.25v-13.08h3.04ZM8.6,2.49v3.25H2.48v-3.25h6.12ZM2.48,8.22h1.81v2.15c0,.69.56,1.25,1.25,1.25s1.25-.56,1.25-1.25v-2.15h1.81v6.12H2.48v-6.12Z"/>
  </g>
</svg>