<?xml version="1.0" encoding="UTF-8"?>
<svg id="_图层_2" data-name="图层 2" xmlns="http://www.w3.org/2000/svg" viewBox="0 0 33.8 32.2">
  <defs>
    <style>
      .cls-1 {
        fill: #f5a623;
        stroke-width: 0px;
      }
    </style>
  </defs>
  <g id="Online_customer_service" data-name="Online customer service">
    <path class="cls-1" d="M31.7,24.09c1.36-2.39,2.09-5.13,2.1-7.99.12-4.15-1.5-8.15-4.55-11.2C26.02,1.68,21.51-.12,16.87,0,12.27-.12,7.78,1.68,4.56,4.9,1.52,7.95-.1,11.92,0,16.1c-.1,4.18,1.52,8.15,4.55,11.2,3.12,3.13,7.46,4.9,11.96,4.9.14,0,.28,0,.42,0,2.54,0,4.98-.5,7.22-1.47l4.77.88c.21.04.42.06.63.06.97,0,1.89-.41,2.54-1.16.79-.91,1.04-2.13.66-3.28l-1.04-3.14ZM28.58,24.45l1.25,3.74c.04.11.02.21-.06.3-.08.09-.17.12-.29.1l-5.23-.96c-.35-.07-.7,0-.99.16-.01,0-.03.01-.05.02-1.93.88-4.05,1.32-6.3,1.33-3.83.1-7.54-1.36-10.16-3.99-2.45-2.45-3.75-5.65-3.67-8.99v-.08c-.09-3.35,1.21-6.54,3.66-8.99,2.63-2.63,6.3-4.06,10.13-3.99,3.9-.08,7.57,1.37,10.2,3.99,2.45,2.45,3.75,5.65,3.66,8.99,0,2.54-.68,4.94-1.94,6.95-.09.15-.15.31-.19.47-.1.3-.12.64,0,.97ZM23.97,14.57c-.85,0-1.54.69-1.54,1.53,0,2.96-2.48,5.36-5.53,5.36s-5.53-2.41-5.53-5.36c0-.85-.69-1.53-1.54-1.53s-1.53.69-1.53,1.53c0,4.65,3.86,8.43,8.6,8.43s8.6-3.78,8.6-8.43c0-.85-.69-1.53-1.54-1.53Z"/>
  </g>
</svg>