<?xml version="1.0" encoding="UTF-8"?>
<svg id="_图层_2" data-name="图层 2" xmlns="http://www.w3.org/2000/svg" viewBox="0 0 40 40">
  <defs>
    <style>
      .cls-1 {
        opacity: .3;
      }

      .cls-1, .cls-2, .cls-3 {
        fill: #f5a623;
        stroke-width: 0px;
      }

      .cls-3 {
        fill-rule: evenodd;
      }
    </style>
  </defs>
  <g id="Current_connection_status" data-name="Current connection status">
    <rect class="cls-1" width="40" height="40" rx="10" ry="10"/>
    <path id="Update" class="cls-3" d="M35.94,21.36c-.13.22-2.73,4.59-2.95,4.96-.15.24-.49.24-.64,0-.16-.27-2.78-4.65-2.96-4.97-.13-.23.01-.54.31-.54h2.31c.05-.41.08-.82.08-1.23,0-6.39-5.34-11.57-11.92-11.57-3.27,0-6.24,1.28-8.39,3.35l-1.75-.97c2.53-2.64,6.14-4.29,10.14-4.29,7.67,0,13.89,6.03,13.89,13.47,0,.42-.03.83-.07,1.23h1.63c.27,0,.48.28.32.55ZM10.29,18.98h-1.94c-.06.47-.1.95-.1,1.44,0,6.39,5.34,11.57,11.92,11.57,3.31,0,6.29-1.31,8.45-3.41l1.75.96c-2.54,2.67-6.16,4.35-10.2,4.35-7.67,0-13.89-6.03-13.89-13.47,0-.49.04-.97.09-1.44h-2c-.28,0-.48-.28-.32-.55.13-.22,2.73-4.59,2.95-4.96.15-.25.5-.24.64,0,.16.27,2.78,4.65,2.96,4.97.13.23-.01.54-.32.54Z"/>
    <path class="cls-2" d="M21.14,17.18c.35.19.67.44.96.72,1.67,1.67,1.7,4.36.08,6.06l-.08.08-2.94,2.94c-1.7,1.7-4.45,1.7-6.15,0-1.7-1.7-1.7-4.45,0-6.15l1.72-1.72c.34-.34.9-.34,1.24,0,.34.34.34.9,0,1.24l-1.72,1.72c-1.01,1.01-1.01,2.65,0,3.66.99.99,2.58,1.01,3.59.07l.07-.07,2.94-2.94c1.01-1.01,1.01-2.65,0-3.66-.14-.14-.3-.27-.47-.37l-.1-.06c-.42-.24-.58-.77-.34-1.2.24-.42.77-.58,1.2-.34h0ZM27,13c1.67,1.67,1.7,4.36.08,6.06l-.14.15-1.66,1.66c-.34.34-.9.34-1.24,0-.33-.33-.34-.85-.04-1.2l.04-.05,1.72-1.72c1.01-1.01,1.01-2.65,0-3.66-.99-.99-2.58-1.01-3.59-.07l-.07.07-2.94,2.94c-1.01,1.01-1.01,2.65,0,3.66.15.15.32.28.5.39l.11.06c.43.23.59.76.36,1.19-.23.43-.76.59-1.19.36-.37-.2-.72-.45-1.02-.76-1.67-1.67-1.7-4.36-.08-6.06l.08-.08,2.94-2.94c1.7-1.7,4.45-1.7,6.15,0h0Z"/>
  </g>
</svg>