<?xml version="1.0" encoding="UTF-8"?>
<svg id="_图层_2" data-name="图层 2" xmlns="http://www.w3.org/2000/svg" viewBox="0 0 34 33.68">
  <g id="_图层_1-2" data-name="图层 1">
    <path id="_左导航05-Zigbee" data-name="左导航05-Zigbee" d="M15.99,27.02c-1.6,0-3.04-.09-4.2-.2L27.86,10.46c1.16-1.19.89-2.94-.26-3.9,0,0,0,0-.01,0-.2-.19-.42-.37-.63-.47-.58-.29-.34-.23-1.7-.76-1.36-.53-5.57-.73-11.25-.73-3.55,0-7.11.35-9.28.61C7.82,2,12.18,0,17,0c9.39,0,17,7.54,17,16.84,0,3.5-1.08,6.75-2.92,9.44-2.62.21-9.74.74-15.09.74ZM22.28,6.4s-.03.02-.04.04L6.04,22.94c-.66.68-.74,2.05-.3,2.99.33.71,1.37,1.61,1.84,1.83.12.05.24.1.36.14.29.14.78.29,1.66.41,0,0,2.44.3,6.46.3,4.43,0,9.97-.33,13.64-.58-3.11,3.46-7.65,5.65-12.7,5.65C7.61,33.68,0,26.14,0,16.84c0-3.66,1.18-7.05,3.19-9.81,2.01-.35,6.47-1.02,10.76-1.02,3.35,0,6.14.17,8.33.39Z"/>
  </g>
</svg>