<?xml version="1.0" encoding="UTF-8"?>
<svg id="_图层_2" data-name="图层 2" xmlns="http://www.w3.org/2000/svg" viewBox="0 0 35.39 29">
  <g id="_图层_1-2" data-name="图层 1">
    <path id="_左导航04-WiFi" data-name="左导航04-WiFi" d="M35.07,8.11c-.26.31-.64.47-1.02.47-.3,0-.61-.1-.86-.31C24.21.76,11.17.76,2.19,8.27c-.56.47-1.4.4-1.88-.16-.47-.56-.4-1.39.16-1.86C10.45-2.08,24.94-2.08,34.91,6.25c.56.47.63,1.3.16,1.86ZM29.69,12.47c.56.47.63,1.3.15,1.86-.26.31-.64.46-1.02.46-.3,0-.61-.1-.86-.31-5.95-5-14.59-5-20.54,0-.56.47-1.4.4-1.88-.15-.48-.55-.41-1.39.15-1.86,6.95-5.84,17.04-5.84,23.99,0ZM24.67,18.45c.56.48.62,1.31.14,1.86-.26.3-.64.46-1.01.46-.31,0-.62-.1-.87-.32-2.98-2.54-7.48-2.54-10.47,0-.56.48-1.4.41-1.88-.14-.48-.55-.42-1.38.14-1.86,3.97-3.39,9.97-3.39,13.95,0ZM17.69,23.95c1.41,0,2.55,1.13,2.55,2.53s-1.14,2.53-2.55,2.53-2.55-1.13-2.55-2.53,1.14-2.53,2.55-2.53Z"/>
  </g>
</svg>