<?xml version="1.0" encoding="UTF-8"?>
<svg id="_图层_2" data-name="图层 2" xmlns="http://www.w3.org/2000/svg" viewBox="0 0 36.81 30">
  <g id="_图层_1-2" data-name="图层 1">
    <path id="_左导航09-系统" data-name="左导航09-系统" d="M32.31,3.46v6.35c-.02.42.2.82.56,1.04.36.22.82.22,1.18,0,.36-.22.58-.62.56-1.04V3.46c0-.96-.34-1.77-1.01-2.45-.68-.68-1.49-1.01-2.45-1.01H3.46c-.96,0-1.77.34-2.45,1.01C.34,1.69,0,2.51,0,3.46v18.46c0,.96.34,1.77,1.01,2.45.68.68,1.49,1.02,2.45,1.02h13.85c.64,0,1.15-.52,1.15-1.15s-.52-1.15-1.15-1.15H3.46c-.77,0-1.15-.38-1.15-1.15V3.46c0-.32.11-.59.34-.82.22-.23.5-.34.81-.34h27.7c.32,0,.59.11.81.34.23.22.34.5.34.81h0ZM11.54,6.92h-4.62c-.43-.02-.83.19-1.06.56-.22.37-.22.83,0,1.19.22.37.63.58,1.06.56h4.61c.43.02.83-.19,1.06-.56.22-.37.22-.83,0-1.19-.22-.37-.63-.58-1.06-.56h0ZM20.02,22.05c-.35-.89-.53-1.81-.52-2.77h0c.02-.72.28-1.31.79-1.78.48-.44,1.05-.66,1.7-.66s1.25.24,1.74.73l1.39,1.39c.08.08.17.12.28.12s.2-.04.28-.11l.67-.67c.08-.08.12-.17.12-.28s-.04-.2-.11-.27l-1.39-1.39c-.78-.77-.96-1.67-.54-2.68.41-1.01,1.17-1.53,2.26-1.54h.08c2,0,3.71.71,5.12,2.12.92.92,1.55,2,1.88,3.25.32,1.21.33,2.42.03,3.64-.08.31,0,.58.23.82l2.06,2.06c.49.49.74,1.09.74,1.79s-.25,1.3-.74,1.79l-1.08,1.08c-.49.49-1.09.74-1.79.74s-1.3-.25-1.79-.74l-2.06-2.06c-.17-.17-.38-.26-.62-.26-.07,0-.14,0-.2.03-.58.15-1.17.22-1.77.22-2,0-3.71-.71-5.12-2.12-.7-.7-1.24-1.52-1.61-2.44h0ZM21.99,18.93c-.26,0-.39.13-.39.38-.02,1.45.48,2.68,1.51,3.7,1.01,1.01,2.22,1.51,3.64,1.51.43,0,.85-.05,1.26-.15.23-.06.47-.09.71-.09.82,0,1.52.29,2.1.87l2.06,2.06c.09.09.19.13.31.13s.22-.04.31-.13l1.08-1.08c.09-.09.13-.19.13-.31s-.04-.23-.13-.31l-2.06-2.06c-.79-.79-1.06-1.73-.78-2.81.48-1.89.02-3.53-1.35-4.91-1-1-2.22-1.51-3.64-1.51h-.06c-.16,0-.28.08-.34.23-.06.16-.04.3.08.41l1.39,1.39c.49.49.73,1.07.73,1.76s-.24,1.28-.73,1.76l-.67.67c-.49.49-1.07.73-1.76.73s-1.28-.24-1.76-.73l-1.39-1.39c-.08-.08-.16-.11-.26-.11h0ZM20.77,28.85c0-.64-.52-1.15-1.15-1.15H5.77c-.61.04-1.09.54-1.09,1.15s.48,1.12,1.09,1.15h13.85c.64,0,1.15-.52,1.15-1.15h0Z"/>
  </g>
</svg>