<?xml version="1.0" encoding="UTF-8"?>
<svg id="_图层_2" data-name="图层 2" xmlns="http://www.w3.org/2000/svg" viewBox="0 0 40 40">
  <defs>
    <style>
      .cls-1 {
        opacity: .3;
      }

      .cls-1, .cls-2 {
        fill: #f5a623;
        stroke-width: 0px;
      }
    </style>
  </defs>
  <g id="DHCP_settings" data-name="DHCP settings">
    <rect class="cls-1" width="40" height="40" rx="10" ry="10"/>
    <g id="Ethernet_Information" data-name="Ethernet Information">
      <g>
        <path class="cls-2" d="M29.68,8.08h-12.21c-.53,0-.95.43-.95.95s.43.95.95.95h12.21c.78,0,1.42.63,1.42,1.42v10.6c0,.78-.63,1.42-1.42,1.42h-15.67c-.53,0-.95.43-.95.95s.43.95.95.95h6.17s-.02.1-.02.15v4.53h-4.53c-.53,0-.95.43-.95.95s.43.95.95.95h10.96c.53,0,.95-.43.95-.95s-.43-.95-.95-.95h-4.53v-4.53s-.02-.1-.02-.15h7.66c1.83,0,3.32-1.49,3.32-3.32v-10.62c0-1.82-1.49-3.32-3.32-3.32h0Z"/>
        <path class="cls-2" d="M14.53,20.94c.52,0,.95-.42.95-.95v-10.96c0-.53-.43-.95-.95-.95h-6.57c-.25,0-.5.1-.67.28-.18.18-.28.42-.28.67v10.96c0,.52.42.95.95.95h2.34v10c0,.53.43.95.95.95s.95-.43.95-.95v-10h2.33ZM13.57,9.98v2.49h-4.68v-2.49h4.68ZM8.89,14.37h1.39v1.65c0,.53.43.95.95.95s.95-.43.95-.95v-1.65h1.39v4.68h-4.68v-4.68Z"/>
      </g>
    </g>
  </g>
</svg>