<?xml version="1.0" encoding="UTF-8"?>
<svg id="_图层_2" data-name="图层 2" xmlns="http://www.w3.org/2000/svg" viewBox="0 0 40 40">
  <defs>
    <style>
      .cls-1 {
        opacity: .3;
      }

      .cls-1, .cls-2 {
        fill: #f5a623;
        stroke-width: 0px;
      }
    </style>
  </defs>
  <g id="WiFi_scanning" data-name="WiFi scanning">
    <rect class="cls-1" width="40" height="40" rx="10" ry="10"/>
    <path class="cls-2" d="M19.99,33.99c-3.71,0-7.27-1.47-9.89-4.1-2.62-2.62-4.1-6.18-4.1-9.89,0-3.23,1.13-6.36,3.18-8.86.43-.52,1.05-.84,1.72-.88.69-.03,1.37.23,1.86.72l8.12,8.13c.43.5.4,1.26-.07,1.73s-1.22.5-1.73.07l-8.04-8.04c-1.62,2.03-2.5,4.55-2.51,7.14,0,3.15,1.29,6.16,3.57,8.33,2.29,2.17,5.36,3.29,8.51,3.12,5.82-.36,10.45-4.99,10.81-10.81.17-3.14-.95-6.22-3.12-8.51-2.17-2.29-5.18-3.58-8.33-3.57-1,0-2,.13-2.97.39-.65.11-1.29-.29-1.45-.93-.17-.64.19-1.3.82-1.52,4.33-1.16,8.95-.18,12.44,2.64,3.48,2.82,5.4,7.14,5.16,11.62-.43,7.13-6.11,12.81-13.24,13.24h-.75Z"/>
  </g>
</svg>