<?xml version="1.0" encoding="UTF-8"?>
<svg id="_图层_2" data-name="图层 2" xmlns="http://www.w3.org/2000/svg" viewBox="0 0 40 40">
  <defs>
    <style>
      .cls-1 {
        opacity: .3;
      }

      .cls-1, .cls-2 {
        fill: #f5a623;
        stroke-width: 0px;
      }
    </style>
  </defs>
  <g id="Hardware_Specifications" data-name="Hardware Specifications">
    <rect class="cls-1" width="40" height="40" rx="10" ry="10"/>
    <path class="cls-2" d="M22.86,15.01h-5.74c-1.23,0-2.05.82-2.05,2.04v5.91c0,1.02.82,1.83,2.05,1.83h5.95c1.03,0,1.85-.81,1.85-2.04v-5.71c0-1.22-.82-2.04-2.05-2.04ZM22.45,22.55h-4.92v-5.09h4.92v5.09ZM32.52,22.95h-3.27v-1.97h3.24c.62,0,1.23-.61,1.23-1.22s-.61-1.22-1.23-1.22h-3.28v-1.9h3.28c.62,0,1.23-.61,1.23-1.22s-.61-1.22-1.23-1.22h-3.28v-.2c0-1.83-1.44-3.46-3.49-3.46h-.2v-3.04c0-.68-.56-1.25-1.25-1.24-.6,0-1.01.42-1.01,1.22v3.26h-2.05v-3.26c0-.61-.62-1.22-1.23-1.22s-1.23.41-1.23,1.22v3.26h-2.05v-3.26c0-.61-.62-1.22-1.23-1.22s-1.23.61-1.23,1.22v3.26h-.2c-1.85,0-3.49,1.43-3.49,3.46v.2h-3.08c-.61,0-1.23.61-1.23,1.22s.62,1.22,1.23,1.22h3.28v1.9h-3.28c-.71,0-1.23.55-1.23,1.16s.62,1.22,1.23,1.22h3.28v2.04h-3.28c-.61,0-1.23.61-1.23,1.22s.62,1.22,1.23,1.22h3.28v.2c0,1.83,1.43,3.46,3.49,3.46h.21v3.26c0,.61.62,1.22,1.23,1.22s1.23-.61,1.23-1.22v-3.26h2.05v3.26c0,.61.62,1.22,1.23,1.22s1.23-.61,1.23-1.22v-3.26h2.05v3.26c0,.61.62,1.22,1.23,1.22s1.23-.61,1.23-1.22v-3.26h.2c1.85,0,3.12-1.43,3.12-3.46v-.41h3.27c.61,0,1.23-.61,1.23-1.22s-.62-1.22-1.23-1.22ZM26.96,25.81c0,.61-.41,1.02-1.02,1.02h-11.89c-.62,0-1.02-.41-1.02-1.02v-11.82c0-.61.41-1.02,1.02-1.02h11.89c.61,0,1.02.41,1.02,1.02v11.82Z"/>
  </g>
</svg>