<?xml version="1.0" encoding="UTF-8"?>
<svg id="_图层_2" data-name="图层 2" xmlns="http://www.w3.org/2000/svg" viewBox="0 0 207 207">
  <defs>
    <style>
      .cls-1 {
        fill: #727272;
      }

      .cls-1, .cls-2, .cls-3, .cls-4, .cls-5 {
        stroke-width: 0px;
      }

      .cls-2 {
        fill-rule: evenodd;
      }

      .cls-3 {
        fill: #ffa33e;
      }

      .cls-4 {
        fill: #fff;
      }

      .cls-5 {
        fill: #051a47;
      }
    </style>
  </defs>
  <g id="AVATTO_APP" data-name="AVATTO APP">
    <path class="cls-2" d="M82,157h-7v6h-6v-6h6v-7h-12v7h-13v6h13v6h19v-12ZM38,88v6h6v-6h-6ZM63,207h6v-7h-6v7ZM0,207h44v-44H0v44ZM7,169h31v31H7v-31ZM82,19h-7v6h7v-6ZM44,0H0v44h44V0ZM38,38H7V7h31v31ZM7,94H0v6h7v-6ZM200,207h7v-7h-7v7ZM32,13H13v19h19V13ZM57,75v-12h-7v6h-6v6h-6v7h6v6h6v-13h7ZM82,63h-7v19h5.35c.49-.61,1.04-1.17,1.66-1.65v-1.35s0-2.67,0-4h6v-6h-6v-6ZM94,150h6v-6h-6v6ZM13,194h19v-19H13v19ZM100,50h-6v7h6v-7ZM200,94v-6h-6v6h6ZM0,69v6h7v-6H0ZM0,157h19v-7H0v7ZM188,75h-13v7h13v-7ZM7,107v6h6v-6h-6ZM32,50h-7v13h7v-13ZM63,0h-6v13h6V0ZM7,50v7h6v-7h-6ZM38,50v7h6v-7h-6ZM157,38h-7v6h7v-6ZM44,132v-7h-6v7h6ZM175,88v-6h-6v6h6ZM57,150v-6h-7v6h7ZM200,100h-6v7h6v-7ZM138,132h6v-13h-6v13ZM94,69v-12h-6v12h6ZM50,13v6h7v-6h-7ZM100,38v6h7v-6h-7ZM150,138h7v-13h-7v13ZM119,132v6h6v6h7v-12h-13ZM44,157v-7h-6v7h6ZM50,144v-6h-12v6h12ZM194,88v-6h-6v6h6ZM32,125h-7v-6h7v-12h-7v6h-12v6h6v6H7v7H0v6h25v6h-6v6h19v-6h-6v-6h6v-6h-6v-7ZM107,157h-7v6h7v-6ZM132,119h-3.17c-.04,2.26-.82,4.34-2.12,6h5.29v-6ZM94,78.19h6v-3.19h-6v3.19ZM69,194v6h6v-6h-6ZM88,169h-6v13h-7v12h7v6h-7v7h25v-7h-12v-6h6v-6h-6v-19ZM63,113v12h12v-6h-6v-6h9.19v-19h-9.19v6h6v7h-6v-7h-6v7h-13v-7h7v-6h12v-6h6v-6h-18v6h-7v6h-6v6h-6v7h6v6h-6v6h12v6h7v-12h6ZM100,138v6h13v-6h-13ZM32,125h6v-6h-6v6ZM107,188h-7v6h7v6h6v-18h-6v6ZM113,132v-3.16h-24.81c-2.34,0-4.49-.81-6.19-2.16v5.32h12v6h6v-6h13ZM63,125h-6v13h6v6h6v-6h6v6h7v-12h-19v-7ZM69,194v-6h-6v-6h6v-7h-6v-6h-6v6h-7v7h7v12h-7v6h13v-6h6ZM169,50v7h13v-7h-13ZM138,182v12h-13v-12h7v-7h-13v-12h-6v6h-13v-6h-12v6h6v19h6v-13h13v7h6v18h13v7h6v-7h6v-18h-6ZM163,0v44h44V0h-44ZM200,38h-31V7h31v31ZM194,13h-19v19h19V13ZM200,82h7v-13h-7v13ZM194,57v-7h-6v7h-6v12h6v-6h6v6h6v-12h-6ZM150,200h-6v7h19v-7h-6v-12h-7v12ZM169,163h-6v6h6v-6ZM88,25h-6v13h6v6h6v-12h-6v-7ZM200,113h-6v19h-6v-7h-13v-12h-6v12h-6v7h6v6h6v-6h7v12h6v-6h6v6h6v-12h7v-7h-7v-12ZM194,150v7h-6v6h6v12h13v-6h-7v-12h7v-13h-7v6h-6ZM182,157h6v-7h-25v-6h-13v-6h-12v6h6v6h6v7h-12v6h-6v-6h6v-13h-6v6h-13v-6h-6v6h-6v7h18v12h7v6h6v-6h6v-6h6v19h7v6h6v6h25v-6h12v-6h-12v-7h-6v-6h6v-6h-6v-6ZM175,175h-18v-18h18v18ZM169,82v-7h-6v7h6ZM132,44v6h-13v-12h-6v6h-6v13h6v6h6v-6h19v6h-13v6h7v6h6v-6h6v13h13v-7h6v-6h6v-6h-6v-13h-13v7h7v6h-7v-6h-6v-7h6v-6h-6v-6h-6v6h-6ZM138,38v-6h-6v6h6ZM100,19v6h-6v7h25v6h6v-6h7v-7h6v-6h-6v-6h-7v-6h-6v12h-19ZM138,19h6v6h6v7h7v-13h-7v-6h-6v-6h6V0h-18v13h6v6ZM163,82h-6v12h-7v6h-6v7h-6v-7h6v-6h-6v-6h-6v6h-3.16v13h3.16v6h12v6h13v-6h-7v-6h7v-7h6v7h6v-7h6v7h7v12h6v-6h6v-6h-6v-7h-6v-6h-13v-6h-6v-6ZM125,69h-12v-6h-13v6h7v6h6v3.19s5.84,0,5.84,0c3.18,0,6.01,1.49,7.84,3.81h5.32v-7h-7v-6ZM157,119v6h6v-6h-6ZM132,44v-6h-7v6h7ZM144,82h-6v6h6v-6ZM163,107h-6v6h6v-6ZM25,88v-6h-6v-13h6v-6h-6v-6h-6v18h-6v7H0v6h13v6h6v-6h6ZM50,57h-6v6h6v-6ZM69,50h-19v7h19v-7ZM69,63h-6v12h6v-12ZM25,100h7v-12h-7v6h-6v6h-6v7h12v-7ZM44,69v-6h-12v6h12ZM63,38v6h6v-6h-6ZM63,32h6v6h6v-13h-6v-6h-12v6h6v7ZM75,13h7v6h6v6h6v-6h6v-6h-6V0h-6v7h-6V0h-13v19h6v-6ZM57,32v-7h-7v19h7v-6h6v-6h-6ZM113,7h6V0h-19v13h13v-6ZM75,57h13v-7h-6v-12h-7v6h-6v6h6v7Z"/>
    <g>
      <rect class="cls-5" x="82.24" y="82.24" width="42.52" height="42.52" rx="7.13" ry="7.13"/>
      <g>
        <path class="cls-4" d="M113.42,96.29c-.12,0-.23-.09-.26-.21-.2-1.04-1.18-1.76-2.23-1.62-.14.02-.27-.08-.29-.23-.02-.14.08-.28.23-.29,1.33-.17,2.56.73,2.81,2.04.03.14-.07.28-.21.31-.02,0-.03,0-.05,0Z"/>
        <path class="cls-4" d="M114.85,96.05c-.13,0-.24-.09-.26-.22-.32-1.85-2.02-3.09-3.87-2.82-.14.02-.28-.08-.3-.22-.02-.14.08-.28.22-.3,2.14-.31,4.1,1.12,4.47,3.25.02.14-.07.28-.21.3-.02,0-.03,0-.04,0Z"/>
        <circle class="cls-3" cx="103.5" cy="104.65" r="2.92"/>
        <path class="cls-1" d="M113.46,114.72h-19.92c-1.36,0-2.46-1.1-2.46-2.46v-4.39c0-.43.35-.79.79-.79s.79.35.79.79v4.39c0,.49.4.89.89.89h19.92c.49,0,.89-.4.89-.89v-4.39c0-.43.35-.79.79-.79s.79.35.79.79v4.39c0,1.36-1.1,2.46-2.46,2.46Z"/>
        <path class="cls-4" d="M116.48,106.63c-.31,0-.61-.12-.85-.35l-11.38-11.38c-.42-.42-1.09-.42-1.51,0l-11.38,11.38c-.47.47-1.23.47-1.69,0-.47-.47-.47-1.23,0-1.69l13.13-13.13c.38-.38,1-.38,1.38,0l13.13,13.13c.47.47.47,1.23,0,1.69-.23.23-.54.35-.85.35Z"/>
      </g>
    </g>
  </g>
</svg>