<?xml version="1.0" encoding="UTF-8"?>
<svg id="_图层_2" data-name="图层 2" xmlns="http://www.w3.org/2000/svg" viewBox="0 0 40 40">
  <defs>
    <style>
      .cls-1 {
        opacity: .3;
      }

      .cls-1, .cls-2 {
        fill: #f5a623;
        stroke-width: 0px;
      }
    </style>
  </defs>
  <g id="Firmware_update" data-name="Firmware update">
    <rect class="cls-1" width="40" height="40" rx="10" ry="10"/>
    <path class="cls-2" d="M24.22,15.38c-.34-.68-1-1.11-1.89-1.11h-5.99c-1.28,0-2.14.86-2.14,2.15v6.24c0,.8.48,1.49,1.25,1.78.19-1.39.64-2.7,1.31-3.87v-3.72h3.58c1.16-.73,2.47-1.24,3.87-1.47ZM13.13,26.74c-.64,0-1.07-.43-1.07-1.08v-12.48c0-.65.43-1.08,1.07-1.08h12.41c.64,0,1.07.43,1.07,1.08v2.07c1.14.07,2.23.32,3.25.73h2.53c.64,0,1.28-.65,1.28-1.29s-.64-1.29-1.28-1.29h-3.42v-.22c0-1.94-1.5-3.66-3.64-3.66h-.21v-3.21c0-.72-.59-1.32-1.3-1.31-.63,0-1.05.44-1.05,1.29v3.44h-2.14v-3.44c0-.65-.64-1.29-1.28-1.29s-1.28.43-1.28,1.29v3.44h-2.14v-3.44c0-.65-.64-1.29-1.28-1.29s-1.28.65-1.28,1.29v3.44h-.21c-1.93,0-3.64,1.51-3.64,3.66v.22h-3.21c-.64,0-1.28.65-1.28,1.29s.64,1.29,1.28,1.29h3.42v2.01h-3.42c-.74,0-1.28.58-1.28,1.22s.64,1.29,1.28,1.29h3.42v2.15h-3.42c-.64,0-1.28.65-1.28,1.29s.64,1.29,1.28,1.29h3.42v.21c0,1.94,1.5,3.66,3.64,3.66h.21v3.44c0,.65.64,1.29,1.28,1.29s1.28-.65,1.28-1.29v-2.88c-.4-.98-.65-2.04-.74-3.14h-2.26ZM25.94,16.77c-5,0-9.06,4.08-9.06,9.11s4.06,9.11,9.06,9.11,9.06-4.08,9.06-9.11-4.06-9.11-9.06-9.11ZM32.13,24.79c-.01.22-.11.43-.27.57-.16.15-.38.22-.6.21l-2.46-.14c-.4-.08-.68-.44-.66-.85.02-.41.33-.74.73-.79l.98.05-.03-.03c-.2-.35-.44-.68-.72-.97-1.24-1.25-3.1-1.62-4.71-.94-1.61.68-2.66,2.27-2.65,4.03.01,1.76,1.08,3.33,2.71,3.99,1.62.65,3.48.25,4.7-1.01.27-.21.66-.17.87.09.26.22.3.61.09.87l-.02.02c-1.62,1.63-4.05,2.12-6.17,1.24-2.12-.88-3.5-2.95-3.5-5.25,0-2.3,1.38-4.38,3.49-5.26,2.11-.88,4.55-.39,6.17,1.23.2.2.38.42.54.65l.02-.29c.06-.43.44-.75.87-.72.43.03.77.38.78.82l-.15,2.48Z"/>
  </g>
</svg>