<?xml version="1.0" encoding="UTF-8"?>
<svg id="_图层_2" data-name="图层 2" xmlns="http://www.w3.org/2000/svg" viewBox="0 0 208 208">
  <defs>
    <style>
      .cls-1 {
        fill: #ec0444;
      }

      .cls-1, .cls-2 {
        stroke-width: 0px;
      }

      .cls-2 {
        fill: #fff;
        fill-rule: evenodd;
      }
    </style>
  </defs>
  <g id="Z-zigbee">
    <rect class="cls-1" width="208" height="208" rx="20" ry="20"/>
    <path class="cls-2" d="M104.24,33.69c-10.62,0-20.2,4.39-27.01,11.43,4.78-.57,12.6-1.34,20.42-1.34,12.51,0,21.76.46,24.76,1.61,3,1.16,2.47,1.03,3.75,1.67.45.23.95.62,1.38,1.04,0,0,.02.01.03.02,2.52,2.12,3.13,5.97.56,8.59l-35.36,36.01c2.54.23,5.71.43,9.24.43,11.77,0,27.45-1.16,33.21-1.63,4.06-5.93,6.43-13.08,6.43-20.78,0-20.48-16.75-37.07-37.42-37.07ZM104.24,107.84c11.11,0,21.09-4.81,27.95-12.43-8.08.57-20.26,1.29-30.02,1.29-8.85,0-14.23-.67-14.23-.67-1.93-.27-3.01-.58-3.65-.9-.27-.09-.54-.2-.8-.32-1.03-.48-3.31-2.47-4.04-4.03-.97-2.07-.79-5.1.67-6.59l35.66-36.32s.07-.05.1-.08c-4.83-.48-10.98-.86-18.34-.86-9.46,0-19.26,1.48-23.69,2.24-4.41,6.08-7.01,13.53-7.01,21.59,0,20.48,16.75,37.07,37.42,37.07ZM60.88,148.07v-4.73h-16.48v4.73h8.67l-9.16,11.01v4.76h17.54v-4.76h-10.48l9.91-11.01ZM68.1,135.28c-.53-.22-1.01-.34-1.44-.34-.68,0-1.3.19-1.87.57-.57.38-.96.84-1.19,1.37-.23.53-.34,1.02-.34,1.47,0,.68.19,1.3.58,1.86.39.56.84.96,1.38,1.18.53.23,1.01.34,1.44.34.68,0,1.3-.19,1.87-.57.57-.38.96-.84,1.19-1.37.23-.53.34-1.01.34-1.44,0-.7-.19-1.33-.58-1.89-.39-.56-.84-.96-1.38-1.18ZM63.76,163.84h5.78v-20.51h-5.78v20.51ZM155.75,159.18c-1.12.38-2.13.46-3.41.13-.74-.19-1.75-.82-2.26-1.61l14.02-5.06c-.02-.89-.34-2.18-.59-2.84-.55-1.49-1.3-2.74-2.25-3.77-.95-1.03-2.03-1.79-3.23-2.3-1.21-.51-2.48-.75-3.83-.74-1.35.02-2.7.27-4.03.76-1.39.51-2.61,1.24-3.69,2.19-1.07.95-1.91,2.04-2.52,3.26-.61,1.22-.94,2.54-1,3.95-.06,1.41.16,2.8.67,4.17.52,1.39,1.32,2.67,2.42,3.83,1.09,1.16,2.38,1.99,3.85,2.48,1.47.5,2.84.71,4.1.62,1.26-.08,2.81-.36,3.82-.72,2.51-.92,3.19-1.51,4.75-3.05l-3.45-3.33c-.39.44-1.87,1.53-3.35,2.03ZM148.61,153.78c-.08-1.36.18-2.56.78-3.61.6-1.05,1.48-1.78,2.63-2.21.78-.28,1.61-.36,2.51-.24.9.13,1.66.44,2.28.94.63.5,1.1,1.03,1.41,1.59l-9.62,3.52ZM140.37,149.8c-.55-1.49-1.3-2.74-2.25-3.77-.95-1.03-2.03-1.79-3.23-2.3-1.21-.51-2.48-.75-3.83-.74-1.35.02-2.7.27-4.03.76-1.39.51-2.61,1.24-3.69,2.19-1.07.95-1.91,2.04-2.52,3.26-.61,1.22-.94,2.54-1,3.95-.06,1.41.16,2.8.67,4.17.52,1.39,1.32,2.67,2.42,3.83,1.09,1.16,2.38,1.99,3.85,2.48,1.47.5,2.84.71,4.1.62,1.26-.08,2.81-.36,3.82-.72,2.51-.92,3.19-1.51,4.75-3.05l-3.45-3.33c-.39.44-1.87,1.53-3.35,2.03-1.12.38-2.13.46-3.41.13-.74-.19-1.75-.82-2.26-1.61l14.02-5.06c-.02-.89-.34-2.18-.59-2.84ZM125.47,153.78c-.08-1.36.18-2.56.78-3.61.6-1.05,1.48-1.78,2.63-2.21.78-.28,1.62-.36,2.51-.24.9.13,1.66.44,2.28.94.63.5,1.1,1.03,1.41,1.59l-9.62,3.52ZM88.04,146.33c-.66-1.07-1.52-1.89-2.6-2.47-1.08-.57-2.3-.86-3.66-.86s-2.73.3-4.09.9c-1.37.6-2.51,1.49-3.43,2.68-.92,1.19-1.54,2.39-1.87,3.6-.33,1.21-.49,2.37-.49,3.46,0,1.49.25,2.9.75,4.23.5,1.33,1.2,2.49,2.11,3.46.91.98,1.97,1.74,3.19,2.27,1.22.54,2.53.8,3.92.8,2.76,0,4.82-1.06,6.18-3.17v2.28c0,2.35-1.68,4.24-2.48,4.8-.8.56-2.12.71-4.01.71-1.61,0-4.6-1.69-5.81-3.13l-3.89,3.64c.83,1.31,2.41,2.41,4.33,3.45,1.92,1.04,4.39,1.54,7.33,1.22,1.32-.14,2.53-.42,3.64-.82,1.11-.4,2.06-.91,2.86-1.51.8-.61,1.46-1.49,2.08-2.38.62-.89,1.06-1.87,1.33-2.95.26-1.08.39-2.09.39-3.03v-20.18h-5.78v2.99ZM86.52,157.66c-.93,1-2.16,1.5-3.68,1.5-1.06,0-2-.29-2.82-.88-.82-.58-1.38-1.3-1.68-2.16-.3-.86-.45-1.67-.45-2.44,0-1.63.46-2.94,1.38-3.94.92-1,2.12-1.5,3.61-1.5s2.7.5,3.64,1.5c.93,1,1.4,2.31,1.4,3.94s-.47,2.98-1.4,3.98ZM115.32,145.97c-.85-.94-1.85-1.68-2.99-2.21-1.15-.53-2.37-.79-3.67-.79-1.22,0-2.33.26-3.31.79-.99.53-1.8,1.27-2.45,2.22v-9.61s-5.77,0-5.77,0v27.47h5.78v-2.49c1.27,1.89,3.16,2.83,5.68,2.83,1.3,0,2.53-.26,3.7-.79,1.17-.53,2.18-1.27,3.03-2.24.85-.97,1.51-2.11,1.98-3.42.47-1.31.71-2.71.71-4.21s-.24-2.86-.71-4.17c-.47-1.31-1.13-2.44-1.98-3.38ZM112.13,156.01c-.31.89-.85,1.65-1.63,2.26-.78.61-1.76.92-2.92.92-1.54,0-2.78-.53-3.73-1.58-.94-1.05-1.42-2.43-1.42-4.14s.47-3.05,1.42-4.1c.94-1.05,2.17-1.58,3.68-1.58.76,0,1.52.18,2.29.54.77.36,1.42,1,1.96,1.92.54.92.81,1.99.81,3.22,0,.8-.15,1.65-.46,2.54Z"/>
  </g>
</svg>