<?xml version="1.0" encoding="UTF-8"?>
<svg id="_图层_2" data-name="图层 2" xmlns="http://www.w3.org/2000/svg" viewBox="0 0 40 40">
  <defs>
    <style>
      .cls-1 {
        opacity: .3;
      }

      .cls-1, .cls-2 {
        fill: #f5a623;
        stroke-width: 0px;
      }
    </style>
  </defs>
  <g id="WireGuard_VPN_configuration" data-name="WireGuard VPN configuration">
    <rect class="cls-1" width="40" height="40" rx="10" ry="10"/>
    <g id="WireGuard_VPN" data-name="WireGuard VPN">
      <g>
        <path class="cls-2" d="M31.27,26.92H8.63c-1.52,0-2.63-1.11-2.63-2.63v-15.67c0-1.52,1.11-2.63,2.63-2.63h22.64c1.52,0,2.63,1.11,2.63,2.63v15.67c0,1.52-1.11,2.63-2.63,2.63h0ZM8.63,7.72c-.51,0-.91.3-.91.91v15.67c0,.51.3.91.91.91h22.64c.51,0,.91-.3.91-.91v-15.67c0-.51-.3-.91-.91-.91H8.63Z"/>
        <path class="cls-2" d="M9.44,12.97h2.02l.91,3.84c.3.91.3,1.72.61,2.73.3-.91.3-1.72.61-2.73l.91-3.84h1.92l-2.32,8.39h-2.22l-2.43-8.39ZM17.12,12.97h2.83c1.72,0,3.13.61,3.13,2.73s-1.42,2.83-3.03,2.83h-.91v2.83h-1.82v-8.39h-.2ZM19.85,17.02c.91,0,1.31-.4,1.31-1.31s-.51-1.11-1.42-1.11h-.71v2.43h.81ZM24.3,12.97h1.92l1.92,4.04.81,1.82h.1c-.1-.91-.3-2.12-.3-3.03v-2.83h1.72v8.39h-1.92l-1.92-4.04-.71-1.82h-.1c.1.91.3,2.12.3,3.03v2.83h-1.72v-8.39h-.1ZM33.09,30.46h-10.71c-.3-.71-.91-1.31-1.62-1.62v-2.93h-1.72v2.93c-.71.3-1.31.91-1.62,1.62H6.91c-.51,0-.91.3-.91.91,0,.51.3.91.91.91h10.61c.3,1.01,1.31,1.72,2.43,1.72s2.12-.71,2.43-1.72h10.71c.51,0,.91-.3.91-.91-.1-.61-.51-.91-.91-.91h0ZM19.04,31.27c0-.51.3-.91.91-.91.51,0,.91.3.91.91,0,.51-.3.91-.91.91-.51,0-.91-.4-.91-.91h0Z"/>
      </g>
    </g>
  </g>
</svg>