<?xml version="1.0" encoding="UTF-8"?>
<svg id="_图层_2" data-name="图层 2" xmlns="http://www.w3.org/2000/svg" viewBox="0 0 40 40">
  <defs>
    <style>
      .cls-1 {
        opacity: .3;
      }

      .cls-1, .cls-2 {
        fill: #f5a623;
        stroke-width: 0px;
      }
    </style>
  </defs>
  <g id="Serial_port_settings" data-name="Serial port settings">
    <rect class="cls-1" width="40" height="40" rx="10" ry="10"/>
    <g>
      <path class="cls-2" d="M9.22,26.51h21.56c.58,0,1.13-.26,1.49-.71.37-.45.51-1.03.39-1.6l-1.95-9.2c-.09-.43-.32-.82-.67-1.09-.34-.28-.76-.43-1.2-.43H11.15c-.45,0-.85.14-1.2.43-.35.29-.57.65-.66,1.09l-1.95,9.2c-.12.56.02,1.15.39,1.6.36.45.91.71,1.49.71h0ZM9.22,28.81c-.65,0-1.27-.14-1.85-.43-.55-.27-1.04-.65-1.42-1.13-.39-.47-.67-1.03-.82-1.62-.16-.62-.17-1.27-.04-1.9l1.95-9.19c.19-.95.71-1.8,1.46-2.4.74-.62,1.68-.96,2.65-.95h17.69c.99,0,1.88.32,2.65.95.78.63,1.26,1.43,1.46,2.4l1.95,9.2c.13.64.12,1.27-.04,1.9-.15.6-.42,1.14-.82,1.62-.39.48-.87.86-1.42,1.13-.58.29-1.2.43-1.85.43H9.22Z"/>
      <path class="cls-2" d="M15.09,19.08c-.84,0-1.53-.69-1.53-1.53s.69-1.53,1.53-1.53,1.53.69,1.53,1.53-.69,1.53-1.53,1.53h0ZM19.69,19.08c-.84,0-1.53-.69-1.53-1.53s.69-1.53,1.53-1.53,1.53.69,1.53,1.53-.69,1.53-1.53,1.53h0ZM24.29,16.01c.84,0,1.53.69,1.53,1.53s-.69,1.53-1.53,1.53-1.53-.69-1.53-1.53.69-1.53,1.53-1.53h0ZM12.79,24.44c-.84,0-1.53-.69-1.53-1.53s.69-1.53,1.53-1.53,1.53.69,1.53,1.53-.69,1.53-1.53,1.53h0ZM17.39,24.44c-.84,0-1.53-.69-1.53-1.53s.69-1.53,1.53-1.53,1.53.69,1.53,1.53-.69,1.53-1.53,1.53h0ZM21.99,24.44c-.84,0-1.53-.69-1.53-1.53s.69-1.53,1.53-1.53,1.53.69,1.53,1.53-.69,1.53-1.53,1.53h0ZM26.59,24.44c-.84,0-1.53-.69-1.53-1.53s.69-1.53,1.53-1.53,1.53.69,1.53,1.53-.69,1.53-1.53,1.53h0Z"/>
    </g>
  </g>
</svg>