<?xml version="1.0" encoding="UTF-8"?>
<svg id="_图层_2" data-name="图层 2" xmlns="http://www.w3.org/2000/svg" viewBox="0 0 40 40">
  <defs>
    <style>
      .cls-1 {
        opacity: .3;
      }

      .cls-1, .cls-2 {
        fill: #f5a623;
        stroke-width: 0px;
      }
    </style>
  </defs>
  <g id="Web_Authentication" data-name="Web Authentication">
    <rect class="cls-1" width="40" height="40" rx="10" ry="10"/>
    <path class="cls-2" d="M32.9,14.55c-.71-1.67-1.71-3.16-3-4.45-1.29-1.29-2.78-2.29-4.45-3-1.73-.73-3.56-1.1-5.45-1.1s-3.72.37-5.45,1.1c-1.67.71-3.16,1.71-4.45,3-1.29,1.29-2.29,2.78-3,4.45-.73,1.73-1.1,3.56-1.1,5.45s.37,3.72,1.1,5.45c.71,1.67,1.71,3.16,3,4.45,1.29,1.28,2.78,2.29,4.45,3,1.73.73,3.56,1.1,5.45,1.1s3.72-.37,5.45-1.1c1.67-.71,3.16-1.71,4.45-3,1.29-1.29,2.29-2.78,3-4.45.73-1.73,1.1-3.56,1.1-5.45s-.37-3.72-1.1-5.45h0ZM21.04,15.61c.57,0,1.14-.02,1.7-.04.99-.04,1.97-.1,2.95-.18.33,1.11.54,2.31.63,3.58h-5.28v-3.35ZM21.04,13.53v-4.81c.57.39,1.28.97,1.98,1.76.76.85,1.4,1.82,1.9,2.88-1.36.1-2.66.16-3.88.17h0ZM18.96,8.84v4.69c-1.12-.02-2.23-.06-3.35-.14-.12,0-.24-.02-.36-.03.49-1.03,1.11-1.98,1.84-2.81.66-.75,1.32-1.31,1.88-1.71h0ZM15.43,15.46c1.18.08,2.36.13,3.54.15v3.35h-5.11c.09-1.27.3-2.46.63-3.57.31.03.62.05.95.07h0ZM11.77,18.96h-3.65c.13-1.48.53-2.91,1.17-4.22.66.12,1.71.28,3.09.44-.32,1.19-.52,2.45-.61,3.78h0ZM11.75,21.04c.06,1.27.31,2.54.75,3.79-1.43.16-2.52.33-3.2.45-.65-1.32-1.05-2.75-1.18-4.24h3.63ZM13.82,21.04h5.14v3.37c-1.18.02-2.36.07-3.54.15-.27.02-.54.04-.8.06-.46-1.18-.73-2.38-.81-3.58h0ZM18.96,26.48v4.27c-.55-.51-1.18-1.17-1.82-1.94-.59-.71-1.1-1.45-1.54-2.19,1.12-.07,2.23-.12,3.35-.14h0ZM21.04,30.91v-4.43c1.11.02,2.29.06,3.52.15-.44.74-.95,1.47-1.53,2.19-.7.85-1.4,1.56-1.99,2.1h0ZM22.74,24.45c-.57-.02-1.13-.04-1.7-.04v-3.37h5.31c-.07,1.2-.34,2.4-.81,3.58-.93-.08-1.87-.13-2.8-.17h0ZM28.43,21.04h3.45c-.13,1.49-.53,2.92-1.18,4.23-1.01-.17-2.02-.32-3.03-.44.44-1.25.69-2.53.75-3.8h0ZM28.4,18.96c-.08-1.33-.29-2.6-.61-3.79.98-.12,1.95-.26,2.92-.42.64,1.31,1.04,2.74,1.17,4.22h-3.48ZM28.43,11.57c.4.4.76.82,1.1,1.27-.81.12-1.62.23-2.43.32-.63-1.52-1.48-2.88-2.54-4.06-.06-.06-.12-.13-.17-.19,1.5.59,2.87,1.49,4.04,2.66h0ZM15.88,8.8c-.09.1-.18.2-.27.29-1.05,1.18-1.91,2.55-2.54,4.07-1.05-.11-1.93-.23-2.6-.34.34-.45.7-.87,1.1-1.26,1.24-1.24,2.71-2.18,4.31-2.76h0ZM11.57,28.43c-.39-.39-.75-.81-1.09-1.25.73-.11,1.7-.25,2.87-.37.59,1.15,1.34,2.28,2.23,3.36.37.45.76.88,1.16,1.3-1.94-.55-3.71-1.58-5.17-3.04h0ZM23.5,31.41c.38-.39.74-.8,1.09-1.23.89-1.08,1.64-2.21,2.23-3.35.9.1,1.81.21,2.71.35-.34.44-.7.86-1.09,1.25-1.4,1.4-3.09,2.41-4.93,2.97h0Z"/>
  </g>
</svg>