<?xml version="1.0" encoding="UTF-8"?>
<svg id="_图层_2" data-name="图层 2" xmlns="http://www.w3.org/2000/svg" viewBox="0 0 35.77 32.22">
  <defs>
    <style>
      .cls-1 {
        fill: #f5a623;
        stroke-width: 0px;
      }
    </style>
  </defs>
  <path id="Purchase" class="cls-1" d="M12,25.52c.46,0,.89.08,1.31.25.41.17.77.4,1.07.7.3.3.54.65.73,1.06.18.41.27.84.27,1.29s-.09.88-.27,1.29c-.18.41-.42.76-.73,1.06-.3.3-.66.54-1.07.72-.41.18-.85.27-1.31.27-.48,0-.93-.09-1.34-.27-.41-.18-.77-.42-1.07-.72-.3-.3-.54-.65-.73-1.06-.18-.41-.27-.84-.27-1.29s.09-.88.27-1.29c.18-.41.42-.76.73-1.06.3-.3.66-.53,1.07-.7.41-.17.86-.25,1.34-.25h0ZM27.08,25.59c.46,0,.9.08,1.32.25.42.17.79.4,1.09.7.3.3.54.65.73,1.06.18.41.27.84.27,1.29s-.09.88-.27,1.29c-.18.41-.42.76-.73,1.06-.3.3-.66.54-1.09.72-.42.18-.86.27-1.32.27s-.89-.09-1.3-.27c-.41-.18-.77-.42-1.07-.72-.3-.3-.54-.65-.73-1.06-.18-.41-.27-.84-.27-1.29s.09-.88.27-1.29c.18-.41.42-.76.73-1.06.3-.3.66-.53,1.07-.7.41-.17.85-.25,1.3-.25h0ZM33.17,5.23c.68,0,1.2.09,1.58.27.37.18.64.4.8.66.16.26.23.54.22.84-.01.3-.05.56-.13.77-.07.22-.23.66-.47,1.33-.24.67-.5,1.4-.78,2.2-.28.8-.56,1.59-.83,2.38-.28.79-.5,1.41-.67,1.86-.31.96-.71,1.62-1.18,1.99-.47.37-1.06.56-1.76.56H10.91l.51,3.23h18.31c1.16,0,1.74.49,1.74,1.47,0,.48-.11.9-.34,1.25-.23.36-.68.53-1.36.5H10.77c-.48,0-.89-.11-1.21-.32-.33-.22-.6-.5-.82-.84-.22-.35-.39-.72-.53-1.13-.13-.41-.24-.79-.31-1.15-.02-.14-.09-.49-.2-1.04-.11-.55-.24-1.24-.4-2.06-.16-.82-.33-1.74-.53-2.76-.19-1.02-.39-2.04-.58-3.06-.46-2.41-.98-5.1-1.56-8.06H1.92c-.36,0-.66-.09-.91-.27-.24-.18-.44-.39-.6-.64-.16-.25-.27-.52-.33-.81-.06-.29-.09-.55-.09-.79,0-.48.16-.87.49-1.18C.82.12,1.26-.02,1.81,0h3.66c.48,0,.87.07,1.16.22.29.14.52.32.69.54.17.21.29.44.36.66.07.23.13.42.18.59.05.19.1.46.15.81.05.35.1.7.15,1.06.07.43.14.88.22,1.36h24.8ZM31.83,8.42l-22.7-.07,1.27,6.49,18.96.04,2.47-6.45Z"/>
</svg>