<?xml version="1.0" encoding="UTF-8"?>
<svg id="_图层_2" data-name="图层 2" xmlns="http://www.w3.org/2000/svg" viewBox="0 0 35.77 30">
  <g id="_图层_1-2" data-name="图层 1">
    <path id="_左导航10-关于" data-name="左导航10-关于" d="M35.33,19.25c-.3.3-.68.45-1.07.45s-.77-.15-1.07-.45l-14.35-14.49c-.53-.53-1.38-.53-1.9,0L2.58,19.25c-.59.6-1.55.6-2.14,0-.59-.6-.59-1.56,0-2.16L17.02.36c.48-.48,1.26-.48,1.74,0l16.57,16.73c.59.6.59,1.56,0,2.16ZM27.17,3.52c1.68-.21,3.23.93,3.55,2.61.03.18-.08.36-.26.39-.02,0-.04,0-.06,0-.16,0-.29-.11-.32-.27-.25-1.33-1.49-2.24-2.81-2.07-.18.02-.35-.11-.37-.29-.02-.18.11-.35.29-.37ZM32.27,6.22s-.04,0-.06,0c-.16,0-.3-.12-.33-.28-.4-2.36-2.55-3.93-4.89-3.59-.18.03-.35-.1-.37-.28-.03-.18.1-.35.28-.38,2.7-.4,5.17,1.42,5.63,4.14.03.18-.09.35-.27.39ZM14.2,17.18c0-2.05,1.65-3.72,3.68-3.72s3.68,1.67,3.68,3.72-1.65,3.72-3.68,3.72-3.68-1.66-3.68-3.72ZM3.2,20.27c.55,0,.99.45.99,1v5.59c0,.62.5,1.13,1.12,1.13h25.13c.62,0,1.12-.51,1.12-1.13v-5.59c0-.55.44-1,.99-1s.99.45.99,1v5.59c0,1.73-1.39,3.14-3.11,3.14H5.32c-1.71,0-3.11-1.41-3.11-3.14v-5.59c0-.55.45-1,.99-1Z"/>
  </g>
</svg>