<?xml version="1.0" encoding="UTF-8"?>
<svg id="_图层_2" data-name="图层 2" xmlns="http://www.w3.org/2000/svg" viewBox="0 0 40 40">
  <defs>
    <style>
      .cls-1 {
        fill: #fff;
      }

      .cls-1, .cls-2 {
        stroke-width: 0px;
      }

      .cls-2 {
        fill: #f5a623;
      }
    </style>
  </defs>
  <g id="Operating_mode" data-name="Operating mode">
    <rect class="cls-2" width="40" height="40" rx="10" ry="10"/>
    <path class="cls-1" d="M21.92,15.23c.59.33,1.13.74,1.62,1.23,2.83,2.83,2.87,7.38.14,10.26l-.14.14-4.98,4.98c-2.87,2.87-7.53,2.87-10.41,0-2.87-2.87-2.87-7.53,0-10.41l2.91-2.91c.58-.58,1.52-.58,2.11,0,.58.58.58,1.52,0,2.11l-2.91,2.91c-1.71,1.71-1.71,4.48,0,6.19,1.67,1.67,4.36,1.71,6.08.11l.12-.11,4.98-4.98c1.71-1.71,1.71-4.48,0-6.19-.24-.24-.5-.45-.79-.63l-.17-.1c-.72-.4-.98-1.31-.57-2.03.4-.72,1.31-.98,2.03-.57h0ZM31.84,8.16c2.83,2.83,2.87,7.38.14,10.26l-.24.25-2.8,2.8c-.58.58-1.52.58-2.11,0-.56-.56-.58-1.44-.07-2.03l.07-.08,2.91-2.91c1.71-1.71,1.71-4.48,0-6.19-1.67-1.67-4.36-1.71-6.08-.11l-.12.11-4.98,4.98c-1.71,1.71-1.71,4.48,0,6.19.26.26.54.48.84.66l.18.11c.72.39,1,1.29.61,2.02-.39.72-1.29,1-2.02.61-.63-.34-1.21-.77-1.73-1.28-2.83-2.83-2.87-7.38-.14-10.26l.14-.14,4.98-4.98c2.87-2.87,7.53-2.87,10.41,0h0Z"/>
  </g>
</svg>