<?xml version="1.0" encoding="UTF-8"?>
<svg id="_图层_2" data-name="图层 2" xmlns="http://www.w3.org/2000/svg" viewBox="0 0 208 208.72">
  <defs>
    <style>
      .cls-1, .cls-2, .cls-3 {
        stroke-width: 0px;
      }

      .cls-2 {
        fill: #fff;
      }

      .cls-3 {
        fill: #ffc038;
      }
    </style>
  </defs>
  <g id="MQTT-Y">
    <path class="cls-3" d="M207.99,104.42c0,14.07,0,28.13,0,42.2,0,1.13.15.82-.71,1.68-19.59,19.66-39.18,39.33-58.77,58.99-.33.33-.67.64-.98.99-.29.33-.64.47-1.07.43-.15-.01-.31,0-.46,0-28,0-56,0-83.99,0-1.29,0-.95.12-1.84-.77-19.79-19.86-39.58-39.72-59.37-59.58-.94-.94-.77-.59-.77-1.84,0-28.07,0-56.15,0-84.22,0-.09.01-.19,0-.28-.09-.61.17-1.03.6-1.46,5.34-5.33,10.65-10.68,15.98-16.02C31.1,29.98,45.61,15.42,60.12.86c1.02-1.02.64-.85,2-.85,27.94,0,55.87,0,83.81,0,1.32,0,1-.15,1.93.79,19.2,19.27,38.4,38.54,57.6,57.81.72.72,1.43,1.45,2.16,2.16.26.25.41.52.38.9-.02.25,0,.49,0,.74,0,14.01,0,28.01,0,42.02Z"/>
    <path class="cls-1" d="M207.99,104.42c0,14.07,0,28.13,0,42.2,0,1.13.15.82-.71,1.68-19.59,19.66-39.18,39.33-58.77,58.99-.33.33-.67.64-.98.99-.29.33-.64.47-1.07.43-.15-.01-.31,0-.46,0-28,0-56,0-83.99,0-1.29,0-.95.12-1.84-.77-19.79-19.86-39.58-39.72-59.37-59.58-.94-.94-.77-.59-.77-1.84,0-28.07,0-56.15,0-84.22,0-.09.01-.19,0-.28-.09-.61.17-1.03.6-1.46,5.34-5.33,10.65-10.68,15.98-16.02C31.1,29.98,45.61,15.42,60.12.86c1.02-1.02.64-.85,2-.85,27.94,0,55.87,0,83.81,0,1.32,0,1-.15,1.93.79,19.2,19.27,38.4,38.54,57.6,57.81.72.72,1.43,1.45,2.16,2.16.26.25.41.52.38.9-.02.25,0,.49,0,.74,0,14.01,0,28.01,0,42.02ZM103.61,205.5c13.5,0,27.01,0,40.51,0,.31,0,.62-.01.93,0,.37.02.66-.11.89-.39.1-.12.22-.22.33-.33,19.23-19.24,38.46-38.47,57.68-57.71.94-.94.82-.63.82-2.01,0-27.11,0-54.23,0-81.34,0-1.42.13-1.1-.86-2.09-19.18-19.2-38.37-38.39-57.55-57.58-1-1-.68-.86-2.09-.86-27.07,0-54.14,0-81.21,0-1.48,0-1.12-.14-2.17.91C41.7,23.28,22.51,42.48,3.33,61.67c-.87.87-.77.54-.77,1.84,0,27.24,0,54.47,0,81.71,0,1.26-.11.96.78,1.84,19.17,19.18,38.33,38.35,57.5,57.53,1.04,1.04.63.91,2.16.91,13.53,0,27.07,0,40.6,0Z"/>
    <path class="cls-1" d="M111.66,17.62c-.76,2.64-1.5,5.22-2.24,7.8-.03.11-.02.24-.02.33.78.61,1.56,1.16,2.27,1.79.73.64,1.26,1.44,1.71,2.29.46.85.79,1.75.95,2.7.16.94.27,1.89.15,2.86-.11.96-.33,1.88-.65,2.79.74.88,1.26,1.86,1.73,2.87.17.37.41.57.81.67,1.92.46,3.83.97,5.75,1.42,5.19,1.24,10.39,2.44,15.57,3.71,3.63.89,7.21,1.92,10.74,3.16,2.74.97,5.43,2.04,7.95,3.51,1.18.69,2.3,1.46,3.26,2.43.62.61,1.16,1.28,1.53,2.08.55,1.17.64,2.36.22,3.6-.8,2.31-2.26,4.09-4.25,5.46-1.76,1.2-3.71,1.95-5.77,2.45-1.86.45-3.75.7-5.67.81-1.8.1-3.59.07-5.37-.06-3.21-.24-6.37-.75-9.43-1.8-1.3-.45-2.47-1.08-3.53-1.98-3.6-3.02-7.16-6.08-10.45-9.44-.54-.55-1.06-1.12-1.6-1.68-.12-.13-.26-.24-.41-.37-.09.12-.17.19-.19.27-.18.71-.69.93-1.36,1.04-1.77.29-3.53.57-5.33.64-1.48.06-2.96.19-4.44.08-1.35-.1-2.71-.18-4.06-.31-.79-.08-1.58-.23-2.38-.36-.26-.47-.49-.9-.72-1.31-.22-.08-.31.07-.41.18-3.9,4.33-8.31,8.11-12.79,11.82-.72.6-1.53,1.03-2.4,1.38-1.7.68-3.46,1.12-5.26,1.45-3.2.59-6.43.89-9.68.73-2.81-.13-5.59-.51-8.27-1.45-2.12-.75-4.06-1.8-5.65-3.44-.96-.99-1.69-2.12-2.2-3.4-.77-1.93-.46-3.69.82-5.3.84-1.05,1.87-1.88,2.98-2.62,1.79-1.18,3.71-2.1,5.68-2.91,3.29-1.35,6.67-2.41,10.09-3.37,4.46-1.24,8.96-2.3,13.47-3.35,3.87-.91,7.74-1.85,11.61-2.77.03,0,.06-.01.09-.02.9-.12,1.47-.58,1.8-1.47.3-.83.77-1.61,1.41-2.33-.83-2.32-.95-4.69-.11-7.06.83-2.35,2.37-4.09,4.61-5.29-.29-1.41-.76-2.74-1.13-4.1-.38-1.37-.79-2.72-1.19-4.09-.81-.18-1.58-.19-2.35-.22-1.36-.05-2.72-.1-4.07-.15-.22,0-.43-.03-.64-.07-.2-.04-.32-.18-.36-.38-.04-.2.1-.43.31-.51.11-.04.24-.07.36-.08.22,0,.43,0,.65,0,1.61.06,3.21.12,4.82.17.22,0,.43.02.65.03,1.6.07,1.33.13,1.88,1.22,1.08,2.19,2.14,4.38,3.22,6.58.13.28.28.54.42.82h1.97c.14-.25.32-.53.47-.83,1.09-2.22,2.15-4.45,3.25-6.66.49-.98.28-1.05,1.66-1.11.74-.04,1.48-.04,2.22-.07,1.14-.04,2.28-.1,3.42-.15.28-.01.56-.01.83.02.28.03.46.25.46.5,0,.26-.16.45-.47.48-.68.06-1.36.11-2.03.14-1.3.05-2.59.08-3.89.13-.31.01-.61.06-1.02.11Z"/>
    <path class="cls-1" d="M74.49,170.49c-.34.62-.68,1.24-1.01,1.86-.25.46-.5.92-.76,1.38-.38.67-.96,1.03-1.74,1.02-.53,0-1.05-.01-1.58,0-.82.02-1.43-.34-1.82-1.05-.44-.78-.86-1.57-1.29-2.36-.16-.29-.33-.58-.5-.86-.26.08-.2.27-.2.4,0,1.08,0,2.16,0,3.25,0,2.44,0,4.88,0,7.33,0,.4-.03.8-.1,1.2-.08.48-.41.74-.89.8-.21.03-.43.02-.65.02-1.58,0-3.15,0-4.73,0-.12,0-.25,0-.37,0-.81-.05-1.16-.39-1.23-1.2-.02-.25,0-.49,0-.74,0-7.2,0-14.4,0-21.6,0-.31-.01-.62.03-.93.09-.66.44-.98,1.1-1.04.15-.01.31-.01.46-.01,1.73,0,3.46.03,5.19-.01.96-.03,1.57.4,2.01,1.2.96,1.76,1.94,3.52,2.91,5.27.12.22.23.44.38.64.34.45.81.44,1.14-.03.14-.2.25-.42.37-.64.83-1.52,1.66-3.03,2.49-4.55.13-.24.27-.49.4-.73.41-.78,1.02-1.17,1.94-1.15,1.76.04,3.52,0,5.28.01,1.2,0,1.55.35,1.56,1.54.01,1.27,0,2.53,0,3.8,0,6.06,0,12.12,0,18.17,0,.31.02.62-.02.93-.08.71-.44,1.04-1.15,1.09-.18.01-.37,0-.56,0-1.58,0-3.15,0-4.73,0-.25,0-.5,0-.74-.03-.49-.07-.79-.33-.87-.83-.07-.42-.09-.86-.09-1.29,0-3.31,0-6.61,0-9.92,0-.3-.02-.6-.04-.89l-.2-.03Z"/>
    <path class="cls-1" d="M102.32,183.52c0,.43,0,.76,0,1.1,0,.28.01.56-.02.83-.08.83-.39,1.13-1.23,1.21-.25.03-.49.03-.74.03-1.39,0-2.78,0-4.17,0-.37,0-.74-.03-1.11-.08-.41-.06-.68-.31-.77-.7-.07-.33-.09-.67-.12-1.01-.04-.46.06-.92-.1-1.41-.33-.08-.66-.14-.98-.23-.65-.18-1.31-.35-1.95-.57-1.97-.7-3.13-2.15-3.64-4.13-.15-.56-.23-1.16-.24-1.74-.02-4.2,0-8.41-.01-12.61,0-.66.12-1.29.29-1.92.4-1.52,1.33-2.63,2.68-3.39,1.01-.56,2.1-.91,3.23-1.11,2.57-.47,5.15-.51,7.75-.26,1.27.12,2.51.33,3.71.76.09.03.18.05.27.08,2.59.97,3.97,2.82,4.09,5.6,0,.19.02.37.02.56,0,4.05.01,8.1,0,12.15,0,.64-.09,1.3-.22,1.93-.31,1.54-1.19,2.69-2.52,3.5-.96.58-2.01.94-3.11,1.16-.33.07-.66.15-1.1.25ZM101.16,170.82c0-1.39,0-2.78,0-4.16,0-.25.01-.5-.02-.74-.07-.6-.37-1.07-.97-1.22-1.27-.32-2.56-.31-3.84,0-.49.12-.79.49-.89.97-.07.33-.09.67-.09,1.01,0,2.78,0,5.55,0,8.33,0,.28,0,.56.05.83.11.67.49,1.1,1.18,1.25,1.1.22,2.2.23,3.3,0,.06-.01.12-.02.18-.04.64-.17.98-.61,1.07-1.25.03-.24.02-.49.02-.74,0-1.42,0-2.84,0-4.26Z"/>
    <path class="cls-1" d="M122.25,122.57c.1,5.16.19,10.32.29,15.48,0,.31.02.62-.03.92-.11.7-.46,1.04-1.18,1.08-1.08.07-2.16.1-3.24.13-.77.02-1.54.02-2.32.03-.09,0-.19,0-.28,0-1.13,0-1.54-.61-1.56-1.52-.03-2.57-.1-5.13-.15-7.69-.11-5.96-.22-11.93-.32-17.89-.04-2.13-.03-4.27-.09-6.4-.03-1.34.48-1.72,1.71-1.75,1.79-.04,3.58-.05,5.38-.06.18,0,.38,0,.55.04.41.11.75.33.84.77.08.39.13.79.14,1.19.03,1.76.04,3.52.07,5.29.06,3.46.13,6.92.2,10.38,0,0,0,0-.01,0Z"/>
    <path class="cls-1" d="M91.36,122.89c-.08-5.07-.16-10.14-.24-15.2,0-.4-.02-.81.02-1.2.06-.62.36-.93.99-1.05.33-.06.67-.09,1.01-.1,1.58-.03,3.15-.05,4.73-.07.25,0,.5-.01.74.03.53.1.92.37,1.01.94.06.4.1.8.11,1.2.04,2.38.06,4.76.1,7.14.12,7.11.24,14.22.37,21.32.01.8.06,1.61.08,2.41,0,.34.01.68-.04,1.02-.11.72-.42,1.02-1.14,1.12-.24.03-.49.05-.74.06-1.67.03-3.34.06-5,.09-.06,0-.12,0-.19,0-1.05-.04-1.45-.41-1.48-1.48-.07-2.6-.11-5.19-.16-7.79-.05-2.81-.11-5.62-.16-8.44,0,0,0,0,0,0Z"/>
    <path class="cls-1" d="M127.03,164.94c-.23.32-.16.64-.16.94,0,1.67,0,3.34,0,5,0,3.58,0,7.17,0,10.75,0,.31,0,.62-.04.92-.07.51-.4.82-.92.89-.18.03-.37.02-.55.02-1.79,0-3.58,0-5.37,0-1.15,0-1.48-.34-1.53-1.48-.01-.28,0-.56,0-.83,0-4.97,0-9.95,0-14.92,0-.4-.01-.8-.02-1.13-.26-.28-.52-.21-.76-.21-1.33,0-2.66,0-3.98,0-.28,0-.56-.01-.83-.07-.42-.1-.71-.37-.78-.82-.04-.27-.08-.55-.08-.83,0-1.17,0-2.35,0-3.52,0-.25.02-.5.06-.74.11-.62.43-.9,1.06-.96.21-.02.43-.01.65-.01,5.93,0,11.86,0,17.79,0,.25,0,.5,0,.74.02.6.07.94.41,1.02,1.01.02.12.02.25.02.37,0,1.36,0,2.72,0,4.08,0,.12,0,.25-.01.37-.07.62-.38.96-.98,1.07-.24.04-.49.04-.74.04-1.3,0-2.59,0-3.89,0-.24,0-.48.03-.69.05Z"/>
    <path class="cls-1" d="M150.07,164.91c-.01.49-.03.86-.03,1.22,0,5.13,0,10.26,0,15.39,0,.31.01.62-.02.93-.06.61-.4.95-1,1.02-.15.02-.31.02-.46.02-1.79,0-3.58,0-5.37,0-1.19,0-1.52-.34-1.55-1.55-.02-.77,0-1.54,0-2.32,0-4.51,0-9.02,0-13.53,0-.36.05-.74-.11-1.14-.32-.02-.62-.04-.92-.04-1.2,0-2.41,0-3.61,0-.22,0-.43,0-.65-.02-.68-.08-.99-.36-1.11-1.03-.04-.24-.06-.49-.06-.74,0-1.14,0-2.29,0-3.43,0-.25.02-.49.07-.74.12-.67.44-.94,1.13-.99.18-.01.37,0,.56,0,5.96,0,11.92,0,17.88,0,.25,0,.5,0,.74.03.51.07.84.38.94.89.04.21.04.43.04.65,0,1.27,0,2.53,0,3.8,0,.12,0,.25,0,.37-.06.8-.42,1.18-1.23,1.21-.96.04-1.91.01-2.87.02-.74,0-1.48.01-2.33.02Z"/>
    <path class="cls-2" d="M96.94,59.63s3.68.77,8.94.64,8.6-.91,8.6-.91c0,0,1.6,3.68,2.08,5.44,0,0-3.86,1.21-10.86,1.21s-10.64-1.54-10.64-1.54c0,0,.95-2.92,1.87-4.84Z"/>
    <path class="cls-2" d="M93.36,76.43s6.29,1.98,13.04,1.98,12.09-1.58,12.09-1.58c0,0-.18,3.43-1.07,5.98,0,0-4.1,1.47-11.09,1.47s-12.02-1.91-12.02-1.91c0,0-.82-2.15-.95-5.94Z"/>
    <path class="cls-1" d="M94.28,67.3s5.21,1.6,11.54,1.6,9.63-.82,11.65-1.3c0,0,.71,2.78.84,5.51,0,0-3.16,1.7-12,1.7s-12.93-2.1-12.93-2.1c0,0,.22-2.96.91-5.42Z"/>
    <path class="cls-1" d="M115.25,86.85s-3.49.87-9.07.87-10.56-1.33-10.56-1.33c0,0,1.68,2.87,4.02,4.77s3.99,2.76,6.01,2.76,4.31-1.43,5.48-2.36,2.85-2.61,4.12-4.71Z"/>
  </g>
</svg>