<?xml version="1.0" encoding="UTF-8"?>
<svg id="_图层_2" data-name="图层 2" xmlns="http://www.w3.org/2000/svg" viewBox="0 0 26 23.78">
  <defs>
    <style>
      .cls-1 {
        fill: #040000;
        stroke-width: 0px;
      }
    </style>
  </defs>
  <g id="LAN_Connection" data-name="LAN Connection">
    <path class="cls-1" d="M25.23,23.78H.77c-.43,0-.77-.35-.77-.77v-14.53c0-.43.35-.77.77-.77h2.72v-3.19c0-.43.35-.77.77-.77h3.2V.77c0-.43.35-.77.77-.77h9.51c.43,0,.77.35.77.77v2.96h3.2c.43,0,.77.35.77.77v3.19h2.72c.43,0,.77.35.77.77v14.53c0,.43-.35.77-.77.77ZM1.55,22.23h22.91v-12.98h-2.72c-.43,0-.77-.35-.77-.77v-3.19h-3.2c-.43,0-.77-.35-.77-.77V1.55h-7.96v2.96c0,.43-.35.77-.77.77h-3.2v3.19c0,.43-.35.77-.77.77H1.55v12.98Z"/>
    <g>
      <path class="cls-1" d="M5.24,19.03c-.43,0-.77-.35-.77-.77v-4.82c0-.43.35-.77.77-.77s.77.35.77.77v4.82c0,.43-.35.77-.77.77Z"/>
      <path class="cls-1" d="M9.12,19.03c-.43,0-.77-.35-.77-.77v-4.82c0-.43.35-.77.77-.77s.77.35.77.77v4.82c0,.43-.35.77-.77.77Z"/>
      <path class="cls-1" d="M13,19.03c-.43,0-.77-.35-.77-.77v-4.82c0-.43.35-.77.77-.77s.77.35.77.77v4.82c0,.43-.35.77-.77.77Z"/>
      <path class="cls-1" d="M16.88,19.03c-.43,0-.77-.35-.77-.77v-4.82c0-.43.35-.77.77-.77s.77.35.77.77v4.82c0,.43-.35.77-.77.77Z"/>
      <path class="cls-1" d="M20.76,19.03c-.43,0-.77-.35-.77-.77v-4.82c0-.43.35-.77.77-.77s.77.35.77.77v4.82c0,.43-.35.77-.77.77Z"/>
    </g>
  </g>
</svg>