<?xml version="1.0" encoding="UTF-8"?>
<svg id="_图层_2" data-name="图层 2" xmlns="http://www.w3.org/2000/svg" viewBox="0 0 40 40">
  <defs>
    <style>
      .cls-1 {
        opacity: .3;
        stroke-width: 0px;
      }

      .cls-1, .cls-2 {
        fill: #f5a623;
      }

      .cls-2 {
        stroke: #f5a623;
        stroke-linecap: round;
        stroke-linejoin: round;
        stroke-width: .43px;
      }
    </style>
  </defs>
  <g id="Real-time_control" data-name="Real-time control">
    <rect class="cls-1" width="40" height="40" rx="10" ry="10"/>
    <g>
      <path class="cls-2" d="M34.54,17.67l-2.53-.56c-.3-1.27-.8-2.48-1.48-3.59l1.16-1.93c.14-.23.1-.53-.09-.71l-2.48-2.49c-.19-.19-.49-.23-.72-.09l-1.93,1.15c-1.11-.68-2.32-1.19-3.59-1.48l-.56-2.52c-.06-.27-.3-.46-.57-.46h-3.52c-.27,0-.51.19-.57.46l-.56,2.53c-1.27.3-2.48.8-3.59,1.48l-1.93-1.16c-.23-.14-.52-.1-.71.09l-2.49,2.49c-.19.19-.23.49-.09.72l1.16,1.93c-.68,1.11-1.18,2.32-1.48,3.59l-2.52.56c-.27.06-.46.3-.46.57v3.52c0,.28.19.51.46.57l2.55.56c.3,1.25.8,2.45,1.48,3.54l-1.18,1.97c-.14.23-.1.53.09.72l2.49,2.48c.19.19.49.23.72.09l2-1.2c1.08.66,2.26,1.14,3.49,1.44l.58,2.62c.06.27.3.46.57.46h3.52c.27,0,.51-.19.57-.46l.58-2.62c1.23-.29,2.41-.78,3.49-1.43l2,1.2c.23.14.53.1.71-.09l2.48-2.48c.19-.19.23-.49.09-.72l-1.18-1.97c.68-1.09,1.18-2.29,1.48-3.54l2.55-.56c.27-.06.46-.3.46-.57v-3.52c0-.27-.19-.51-.46-.57h0ZM33.83,21.29l-2.45.54c-.23.05-.4.23-.45.45-.28,1.36-.83,2.66-1.6,3.82-.12.19-.13.43-.01.63l1.13,1.89-1.84,1.84-1.91-1.15c-.19-.11-.43-.11-.62.01-1.15.75-2.43,1.27-3.78,1.55-.23.05-.41.22-.45.45l-.56,2.52h-2.57l-.56-2.52c-.05-.23-.23-.4-.45-.45-1.35-.27-2.63-.8-3.78-1.55-.19-.12-.43-.13-.62,0l-1.92,1.15-1.84-1.84,1.13-1.89c.12-.19.11-.44-.01-.63-.77-1.16-1.31-2.46-1.6-3.82-.05-.22-.22-.4-.45-.45l-2.45-.54v-2.57l2.43-.53c.23-.05.4-.23.45-.46.28-1.38.82-2.68,1.59-3.87.12-.19.13-.43.01-.62l-1.11-1.85,1.84-1.84,1.84,1.11c.19.12.44.11.62-.01,1.17-.77,2.49-1.32,3.87-1.59.23-.05.41-.22.45-.45l.53-2.43h2.57l.53,2.43c.05.23.23.4.45.45,1.38.28,2.68.82,3.87,1.59.19.12.43.13.62.01l1.84-1.11,1.84,1.84-1.11,1.85c-.12.19-.11.44.01.62.78,1.18,1.31,2.48,1.59,3.87.05.23.22.41.45.46l2.43.53v2.57h0Z"/>
      <path class="cls-2" d="M23.35,19.45h-1.77c-.17-.48-.54-.85-1.02-1.02v-2.87c0-.3-.25-.56-.56-.56s-.56.25-.56.56v2.87c-.65.23-1.11.85-1.11,1.57,0,.92.75,1.67,1.67,1.67.73,0,1.35-.46,1.58-1.11h1.77c.31,0,.56-.25.56-.55s-.25-.56-.56-.56h0ZM20,20.55c-.31,0-.56-.25-.56-.55s.25-.56.56-.56.56.25.56.56-.25.55-.56.55h0Z"/>
      <path class="cls-2" d="M20,11.67c-4.6,0-8.33,3.73-8.33,8.33s3.74,8.33,8.33,8.33,8.33-3.74,8.33-8.33-3.73-8.33-8.33-8.33h0ZM25.48,24.7l-.38-.38c-.22-.22-.57-.22-.79,0-.22.22-.22.57,0,.79l.38.37c-1.13.97-2.57,1.6-4.14,1.72v-.53c0-.31-.25-.56-.55-.56s-.56.25-.56.56v.53c-1.53-.12-2.98-.72-4.14-1.72l.37-.38c.22-.22.22-.57,0-.79-.22-.22-.57-.22-.79,0l-.37.38c-1-1.16-1.6-2.61-1.72-4.14h.54c.31,0,.56-.25.56-.55s-.25-.56-.56-.56h-.53c.11-1.53.71-2.98,1.72-4.15l.38.38c.22.22.57.22.79,0s.22-.57,0-.79l-.38-.38c1.16-1,2.61-1.6,4.14-1.72v.54c0,.31.25.56.56.56s.55-.25.55-.56v-.53c1.54.12,2.98.71,4.14,1.72l-.38.38c-.22.22-.22.57,0,.79.22.22.57.22.79,0l.38-.38c1,1.17,1.6,2.61,1.72,4.15h-.53c-.31,0-.56.25-.56.56s.25.55.56.55h.53c-.12,1.53-.72,2.98-1.72,4.15h0Z"/>
    </g>
  </g>
</svg>