<?xml version="1.0" encoding="UTF-8"?>
<svg id="_图层_2" data-name="图层 2" xmlns="http://www.w3.org/2000/svg" viewBox="0 0 25.99 41">
  <defs>
    <style>
      .cls-1 {
        fill: #34c759;
        fill-rule: evenodd;
        stroke-width: 0px;
      }
    </style>
  </defs>
  <path id="Temp" class="cls-1" d="M24.79,10.25h-4.18c-.66,0-1.2-.54-1.2-1.2s.54-1.2,1.2-1.2h4.18c.66,0,1.2.54,1.2,1.2s-.54,1.2-1.2,1.2ZM24.79,6.21h-4.18c-.66,0-1.2-.54-1.2-1.2s.54-1.2,1.2-1.2h4.18c.66,0,1.2.54,1.2,1.2s-.54,1.2-1.2,1.2ZM22.18,29.97c0,6.1-4.97,11.04-11.09,11.04S0,36.06,0,29.97c0-3.68,1.81-6.93,4.58-8.94V6.46C4.58,2.89,7.49,0,11.07,0s6.49,2.89,6.49,6.46v14.55c2.8,2,4.62,5.27,4.62,8.96ZM15.21,22.75V6.58c0-2.28-1.86-4.13-4.15-4.13s-4.15,1.85-4.15,4.13v16.19c-2.5,1.44-4.18,4.12-4.18,7.2,0,4.59,3.74,8.31,8.35,8.31s8.35-3.72,8.35-8.31c0-3.1-1.7-5.79-4.22-7.22ZM11.09,34.92c-2.77,0-5.01-2.23-5.01-4.99,0-2.21,1.45-4.09,3.45-4.74v-11.59c0-.85.69-1.54,1.54-1.54s1.54.69,1.54,1.54v11.58c2.02.64,3.48,2.52,3.48,4.75,0,2.75-2.24,4.99-5.01,4.99ZM19.41,13.08c0-.66.54-1.2,1.2-1.2h4.18c.66,0,1.2.54,1.2,1.2s-.54,1.2-1.2,1.2h-4.18c-.66,0-1.2-.54-1.2-1.2Z"/>
</svg>