<?xml version="1.0" encoding="UTF-8"?>
<svg id="_图层_2" data-name="图层 2" xmlns="http://www.w3.org/2000/svg" viewBox="0 0 33.76 33.74">
  <defs>
    <style>
      .cls-1 {
        fill: #ff3b30;
        fill-rule: evenodd;
        stroke-width: 0px;
      }
    </style>
  </defs>
  <path id="Time" class="cls-1" d="M16.88,33.74C7.56,33.74,0,26.19,0,16.87S7.56,0,16.88,0s16.88,7.55,16.88,16.87-7.56,16.87-16.88,16.87ZM16.88,2.98c-7.68,0-13.91,6.22-13.91,13.9s6.23,13.9,13.91,13.9,13.9-6.22,13.9-13.9S24.56,2.98,16.88,2.98ZM20.6,21.29l-4.38-2.53c-.24-.14-.43-.34-.56-.58,0-.01-.01-.02-.02-.03,0-.01-.01-.02-.02-.03-.14-.22-.22-.49-.22-.77v-6.13c0-.82.66-1.48,1.48-1.48s1.48.66,1.48,1.48v5.36l3.72,2.15c.71.41.95,1.31.54,2.02-.41.71-1.31.95-2.02.54Z"/>
</svg>