<?xml version="1.0" encoding="UTF-8"?>
<svg id="_图层_2" data-name="图层 2" xmlns="http://www.w3.org/2000/svg" viewBox="0 0 33 14.67">
  <defs>
    <style>
      .cls-1 {
        fill: #040000;
        stroke-width: 0px;
      }
    </style>
  </defs>
  <g id="usb_Connection" data-name="usb Connection">
    <path class="cls-1" d="M25.67,14.67H7.33C3.29,14.67,0,11.38,0,7.33S3.29,0,7.33,0h18.34c4.04,0,7.33,3.29,7.33,7.33s-3.29,7.33-7.33,7.33ZM7.33,1.54C4.14,1.54,1.54,4.14,1.54,7.33s2.6,5.79,5.8,5.79h18.34c3.2,0,5.8-2.6,5.8-5.79s-2.6-5.79-5.8-5.79H7.33Z"/>
    <path class="cls-1" d="M26.79,8.85H6.21c-.83,0-1.51-.68-1.51-1.51s.68-1.51,1.51-1.51h20.57c.83,0,1.51.68,1.51,1.51s-.68,1.51-1.51,1.51ZM26.79,7.31h.02-.02Z"/>
  </g>
</svg>