<?xml version="1.0" encoding="UTF-8"?>
<svg id="_图层_2" data-name="图层 2" xmlns="http://www.w3.org/2000/svg" viewBox="0 0 25 18.13">
  <defs>
    <style>
      .cls-1 {
        fill: #040000;
        stroke-width: 0px;
      }
    </style>
  </defs>
  <g id="wifi_Connection" data-name="wifi Connection">
    <path class="cls-1" d="M24.22,6.4c-.2,0-.4-.07-.55-.23C17.52,0,7.48.01,1.32,6.17c-.3.3-.79.3-1.1,0s-.3-.79,0-1.1C6.99-1.69,18-1.69,24.77,5.07c.3.3.3.79,0,1.1-.15.15-.35.23-.55.23Z"/>
    <path class="cls-1" d="M19.2,11.42c-.2,0-.4-.07-.55-.23-3.39-3.39-8.91-3.39-12.3,0-.3.3-.79.3-1.1,0s-.3-.79,0-1.1c4-4,10.5-4,14.49,0,.3.3.3.79,0,1.1-.15.15-.35.23-.55.23Z"/>
    <circle class="cls-1" cx="12.5" cy="16.06" r="2.07"/>
  </g>
</svg>