<?xml version="1.0" encoding="UTF-8"?>
<svg id="_图层_2" data-name="图层 2" xmlns="http://www.w3.org/2000/svg" viewBox="0 0 40 40">
  <defs>
    <style>
      .cls-1 {
        opacity: .3;
        stroke-width: 0px;
      }

      .cls-1, .cls-2 {
        fill: #f5a623;
      }

      .cls-2 {
        fill-rule: evenodd;
        stroke: #f5a623;
        stroke-linecap: round;
        stroke-linejoin: round;
        stroke-width: .43px;
      }
    </style>
  </defs>
  <g id="Work_mode_selection" data-name="Work mode selection">
    <rect class="cls-1" width="40" height="40" rx="10" ry="10"/>
    <path class="cls-2" d="M32,29.31c0,1.48-1.2,2.69-2.68,2.69h-5.51c-1.48,0-2.68-1.2-2.68-2.69v-5.53s0,0,0,0v-2.68h2.65s.02,0,.02,0h5.51c1.48,0,2.68,1.2,2.68,2.69v.92h0s0,0,0,0c0,.51-.42.93-.93.93s-.93-.42-.93-.93c0,0,0,0,0,0h0v-.9c0-.47-.38-.85-.85-.85h-5.45s0,0-.01,0h-.84v4.34s0-.05,0-.08v2.08c0,.47.38.85.85.85h5.45c.47,0,.85-.38.85-.85v-.05h0s0,0,0,0c0-.51.42-.93.93-.93s.93.42.93.93c0,0,0,0,0,0h0v.08ZM29.32,18.9h-5.51s-.02,0-.02,0h-2.65v-2.68s0,0,0,0v-5.53c0-1.48,1.2-2.69,2.68-2.69h5.51c1.48,0,2.68,1.2,2.68,2.69v5.53c0,1.48-1.2,2.69-2.68,2.69ZM30.14,10.71c0-.47-.38-.85-.85-.85h-5.45c-.47,0-.85.38-.85.85v2.08s0-.05,0-.08v4.34h.84s0,0,.01,0h5.45c.47,0,.85-.38.85-.85v-5.49ZM16.18,32h-5.51c-1.48,0-2.68-1.2-2.68-2.69v-5.53c0-1.48,1.2-2.69,2.68-2.69h5.51s.02,0,.02,0h2.65v2.68h0v5.54c0,1.48-1.2,2.69-2.68,2.69ZM17,22.95h-.84s0,0-.01,0h-5.45c-.47,0-.85.38-.85.85v5.49c0,.47.38.85.85.85h5.45c.47,0,.85-.38.85-.85v-2.08s0,.05,0,.08v-4.34ZM18.86,18.9h-2.65s-.02,0-.02,0h-5.51c-1.48,0-2.68-1.2-2.68-2.69v-5.53c0-1.48,1.2-2.69,2.68-2.69h5.51c1.48,0,2.68,1.2,2.68,2.69v5.53h0v2.69ZM17,12.71s0,.05,0,.08v-2.08c0-.47-.38-.85-.85-.85h-5.45c-.47,0-.85.38-.85.85v5.49c0,.47.38.85.85.85h5.45s0,0,.01,0h.84v-4.34Z"/>
  </g>
</svg>